<svg width="378" height="582" viewBox="0 0 378 582" fill="none" xmlns="http://www.w3.org/2000/svg">
<g filter="url(#filter0_di)">
<rect x="25" y="10.1699" width="255" height="531.66" rx="38" fill="#5013FF"/>
<rect x="25.25" y="10.4199" width="254.5" height="531.16" rx="37.75" stroke="#D6CBC0" stroke-width="0.5"/>
</g>
<mask id="path-3-inside-1" fill="white">
<path fill-rule="evenodd" clip-rule="evenodd" d="M37.1308 35.411C33.861 41.8284 33.861 50.2292 33.861 67.0307V484.969C33.861 501.771 33.861 510.171 37.1308 516.589C40.007 522.234 44.5964 526.823 50.2412 529.699C56.6586 532.969 65.0594 532.969 81.861 532.969H223.139C239.941 532.969 248.341 532.969 254.759 529.699C260.404 526.823 264.993 522.234 267.869 516.589C271.139 510.171 271.139 501.771 271.139 484.969V67.0308C271.139 50.2292 271.139 41.8284 267.869 35.411C264.993 29.7662 260.404 25.1768 254.759 22.3006C248.341 19.0308 239.941 19.0308 223.139 19.0308H81.861C65.0594 19.0308 56.6586 19.0308 50.2412 22.3006C44.5964 25.1768 40.007 29.7662 37.1308 35.411ZM89.9807 22.9691C89.9807 21 88.0116 19.0309 86.0425 19.0309H89.9807V19.0309H215.019H218.465C216.496 19.0309 215.019 20.5078 215.019 22.4769V22.3503C215.019 30.3047 208.571 36.7529 200.617 36.7529H104.383C96.4345 36.7529 89.9896 30.3136 89.9807 22.3669V22.9691Z"/>
</mask>
<path d="M37.1308 35.411L37.5763 35.638L37.1308 35.411ZM37.1308 516.589L36.6853 516.816L37.1308 516.589ZM50.2412 529.699L50.4682 529.254L50.2412 529.699ZM254.759 529.699L254.532 529.254L254.759 529.699ZM267.869 516.589L268.315 516.816H268.315L267.869 516.589ZM267.869 35.411L268.315 35.1841L267.869 35.411ZM254.759 22.3006L254.986 21.8551V21.8551L254.759 22.3006ZM50.2412 22.3006L50.4682 22.7461L50.2412 22.3006ZM89.9807 19.0309H90.4807V18.5309H89.9807V19.0309ZM89.9807 19.0309H89.4807V19.5309H89.9807V19.0309ZM89.9807 22.3669L90.4807 22.3663L89.4807 22.3669H89.9807ZM34.361 67.0307C34.361 58.6217 34.3614 52.345 34.768 47.3675C35.1742 42.3959 35.9833 38.7645 37.5763 35.638L36.6853 35.1841C35.0085 38.475 34.1826 42.2526 33.7713 47.2861C33.3606 52.3137 33.361 58.6382 33.361 67.0307H34.361ZM34.361 484.969V67.0307H33.361V484.969H34.361ZM37.5763 516.362C35.9833 513.235 35.1742 509.604 34.768 504.632C34.3614 499.655 34.361 493.378 34.361 484.969H33.361C33.361 493.362 33.3606 499.686 33.7713 504.714C34.1826 509.747 35.0085 513.525 36.6853 516.816L37.5763 516.362ZM50.4682 529.254C44.9175 526.425 40.4045 521.913 37.5763 516.362L36.6853 516.816C39.6094 522.555 44.2753 527.221 50.0143 530.145L50.4682 529.254ZM81.861 532.469C73.4519 532.469 67.1752 532.469 62.1977 532.062C57.2261 531.656 53.5947 530.847 50.4682 529.254L50.0143 530.145C53.3052 531.821 57.0828 532.647 62.1163 533.059C67.144 533.469 73.4684 533.469 81.861 533.469V532.469ZM223.139 532.469H81.861V533.469H223.139V532.469ZM254.532 529.254C251.405 530.847 247.774 531.656 242.802 532.062C237.825 532.469 231.548 532.469 223.139 532.469V533.469C231.531 533.469 237.856 533.469 242.884 533.059C247.917 532.647 251.695 531.821 254.986 530.145L254.532 529.254ZM267.424 516.362C264.595 521.913 260.082 526.425 254.532 529.254L254.986 530.145C260.725 527.221 265.391 522.555 268.315 516.816L267.424 516.362ZM270.639 484.969C270.639 493.378 270.639 499.655 270.232 504.632C269.826 509.604 269.017 513.235 267.424 516.362L268.315 516.816C269.991 513.525 270.817 509.747 271.229 504.714C271.639 499.686 271.639 493.362 271.639 484.969H270.639ZM270.639 67.0308V484.969H271.639V67.0308H270.639ZM267.424 35.638C269.017 38.7645 269.826 42.3959 270.232 47.3675C270.639 52.345 270.639 58.6217 270.639 67.0308H271.639C271.639 58.6382 271.639 52.3138 271.229 47.2861C270.817 42.2526 269.991 38.475 268.315 35.1841L267.424 35.638ZM254.532 22.7461C260.082 25.5743 264.595 30.0873 267.424 35.638L268.315 35.1841C265.391 29.4451 260.725 24.7792 254.986 21.8551L254.532 22.7461ZM223.139 19.5308C231.548 19.5308 237.825 19.5312 242.802 19.9378C247.774 20.344 251.405 21.1531 254.532 22.7461L254.986 21.8551C251.695 20.1783 247.917 19.3524 242.884 18.9411C237.856 18.5304 231.531 18.5308 223.139 18.5308V19.5308ZM81.861 19.5308H223.139V18.5308H81.861V19.5308ZM50.4682 22.7461C53.5947 21.1531 57.2261 20.344 62.1977 19.9378C67.1752 19.5312 73.4519 19.5308 81.861 19.5308V18.5308C73.4684 18.5308 67.144 18.5304 62.1163 18.9411C57.0828 19.3524 53.3052 20.1783 50.0143 21.8551L50.4682 22.7461ZM37.5763 35.638C40.4045 30.0873 44.9175 25.5743 50.4682 22.7461L50.0143 21.8551C44.2753 24.7792 39.6094 29.4451 36.6853 35.1841L37.5763 35.638ZM86.0425 19.5309C86.8644 19.5309 87.7282 19.9469 88.3965 20.6151C89.0647 21.2834 89.4807 22.1472 89.4807 22.9691H90.4807C90.4807 21.8219 89.9121 20.7166 89.1036 19.908C88.295 19.0994 87.1896 18.5309 86.0425 18.5309V19.5309ZM89.9807 18.5309H86.0425V19.5309H89.9807V18.5309ZM90.4807 19.0309V19.0309H89.4807V19.0309H90.4807ZM215.019 18.5309H89.9807V19.5309H215.019V18.5309ZM218.465 18.5309H215.019V19.5309H218.465V18.5309ZM215.519 22.4769C215.519 20.7839 216.772 19.5309 218.465 19.5309V18.5309C216.22 18.5309 214.519 20.2316 214.519 22.4769H215.519ZM214.519 22.3503V22.4769H215.519V22.3503H214.519ZM200.617 37.2529C208.847 37.2529 215.519 30.5808 215.519 22.3503H214.519C214.519 30.0285 208.295 36.2529 200.617 36.2529V37.2529ZM104.383 37.2529H200.617V36.2529H104.383V37.2529ZM89.4807 22.3674C89.4899 30.5901 96.1585 37.2529 104.383 37.2529V36.2529C96.7104 36.2529 90.4893 30.0372 90.4807 22.3663L89.4807 22.3674ZM90.4807 22.9691V22.3669H89.4807V22.9691H90.4807Z" fill="black" fill-opacity="0.7" style="mix-blend-mode:overlay" mask="url(#path-3-inside-1)"/>
<path d="M37.1308 35.411L37.5763 35.638L37.1308 35.411ZM37.1308 516.589L36.6853 516.816L37.1308 516.589ZM50.2412 529.699L50.4682 529.254L50.2412 529.699ZM254.759 529.699L254.532 529.254L254.759 529.699ZM267.869 516.589L268.315 516.816H268.315L267.869 516.589ZM267.869 35.411L268.315 35.1841L267.869 35.411ZM254.759 22.3006L254.986 21.8551V21.8551L254.759 22.3006ZM50.2412 22.3006L50.4682 22.7461L50.2412 22.3006ZM89.9807 19.0309H90.4807V18.5309H89.9807V19.0309ZM89.9807 19.0309H89.4807V19.5309H89.9807V19.0309ZM89.9807 22.3669L90.4807 22.3663L89.4807 22.3669H89.9807ZM34.361 67.0307C34.361 58.6217 34.3614 52.345 34.768 47.3675C35.1742 42.3959 35.9833 38.7645 37.5763 35.638L36.6853 35.1841C35.0085 38.475 34.1826 42.2526 33.7713 47.2861C33.3606 52.3137 33.361 58.6382 33.361 67.0307H34.361ZM34.361 484.969V67.0307H33.361V484.969H34.361ZM37.5763 516.362C35.9833 513.235 35.1742 509.604 34.768 504.632C34.3614 499.655 34.361 493.378 34.361 484.969H33.361C33.361 493.362 33.3606 499.686 33.7713 504.714C34.1826 509.747 35.0085 513.525 36.6853 516.816L37.5763 516.362ZM50.4682 529.254C44.9175 526.425 40.4045 521.913 37.5763 516.362L36.6853 516.816C39.6094 522.555 44.2753 527.221 50.0143 530.145L50.4682 529.254ZM81.861 532.469C73.4519 532.469 67.1752 532.469 62.1977 532.062C57.2261 531.656 53.5947 530.847 50.4682 529.254L50.0143 530.145C53.3052 531.821 57.0828 532.647 62.1163 533.059C67.144 533.469 73.4684 533.469 81.861 533.469V532.469ZM223.139 532.469H81.861V533.469H223.139V532.469ZM254.532 529.254C251.405 530.847 247.774 531.656 242.802 532.062C237.825 532.469 231.548 532.469 223.139 532.469V533.469C231.531 533.469 237.856 533.469 242.884 533.059C247.917 532.647 251.695 531.821 254.986 530.145L254.532 529.254ZM267.424 516.362C264.595 521.913 260.082 526.425 254.532 529.254L254.986 530.145C260.725 527.221 265.391 522.555 268.315 516.816L267.424 516.362ZM270.639 484.969C270.639 493.378 270.639 499.655 270.232 504.632C269.826 509.604 269.017 513.235 267.424 516.362L268.315 516.816C269.991 513.525 270.817 509.747 271.229 504.714C271.639 499.686 271.639 493.362 271.639 484.969H270.639ZM270.639 67.0308V484.969H271.639V67.0308H270.639ZM267.424 35.638C269.017 38.7645 269.826 42.3959 270.232 47.3675C270.639 52.345 270.639 58.6217 270.639 67.0308H271.639C271.639 58.6382 271.639 52.3138 271.229 47.2861C270.817 42.2526 269.991 38.475 268.315 35.1841L267.424 35.638ZM254.532 22.7461C260.082 25.5743 264.595 30.0873 267.424 35.638L268.315 35.1841C265.391 29.4451 260.725 24.7792 254.986 21.8551L254.532 22.7461ZM223.139 19.5308C231.548 19.5308 237.825 19.5312 242.802 19.9378C247.774 20.344 251.405 21.1531 254.532 22.7461L254.986 21.8551C251.695 20.1783 247.917 19.3524 242.884 18.9411C237.856 18.5304 231.531 18.5308 223.139 18.5308V19.5308ZM81.861 19.5308H223.139V18.5308H81.861V19.5308ZM50.4682 22.7461C53.5947 21.1531 57.2261 20.344 62.1977 19.9378C67.1752 19.5312 73.4519 19.5308 81.861 19.5308V18.5308C73.4684 18.5308 67.144 18.5304 62.1163 18.9411C57.0828 19.3524 53.3052 20.1783 50.0143 21.8551L50.4682 22.7461ZM37.5763 35.638C40.4045 30.0873 44.9175 25.5743 50.4682 22.7461L50.0143 21.8551C44.2753 24.7792 39.6094 29.4451 36.6853 35.1841L37.5763 35.638ZM86.0425 19.5309C86.8644 19.5309 87.7282 19.9469 88.3965 20.6151C89.0647 21.2834 89.4807 22.1472 89.4807 22.9691H90.4807C90.4807 21.8219 89.9121 20.7166 89.1036 19.908C88.295 19.0994 87.1896 18.5309 86.0425 18.5309V19.5309ZM89.9807 18.5309H86.0425V19.5309H89.9807V18.5309ZM90.4807 19.0309V19.0309H89.4807V19.0309H90.4807ZM215.019 18.5309H89.9807V19.5309H215.019V18.5309ZM218.465 18.5309H215.019V19.5309H218.465V18.5309ZM215.519 22.4769C215.519 20.7839 216.772 19.5309 218.465 19.5309V18.5309C216.22 18.5309 214.519 20.2316 214.519 22.4769H215.519ZM214.519 22.3503V22.4769H215.519V22.3503H214.519ZM200.617 37.2529C208.847 37.2529 215.519 30.5808 215.519 22.3503H214.519C214.519 30.0285 208.295 36.2529 200.617 36.2529V37.2529ZM104.383 37.2529H200.617V36.2529H104.383V37.2529ZM89.4807 22.3674C89.4899 30.5901 96.1585 37.2529 104.383 37.2529V36.2529C96.7104 36.2529 90.4893 30.0372 90.4807 22.3663L89.4807 22.3674ZM90.4807 22.9691V22.3669H89.4807V22.9691H90.4807Z" fill="black" fill-opacity="0.05" mask="url(#path-3-inside-1)"/>
<mask id="mask0" mask-type="alpha" maskUnits="userSpaceOnUse" x="33" y="19" width="239" height="514">
<rect x="33.861" y="19.0308" width="237.278" height="513.938" rx="30" fill="#ECE4DC"/>
</mask>
<g mask="url(#mask0)">
<rect x="33.861" y="19.0308" width="237.278" height="513.938" rx="30" fill="white"/>
<path fill-rule="evenodd" clip-rule="evenodd" d="M86.861 19.0308C88.861 19.0308 90.861 21.0308 90.861 23.0308V22.0308V19.0308H86.861ZM90.861 19.0308H217.861H221.361C219.367 19.0308 217.871 20.5212 217.861 22.5116V22.6282C217.861 30.5825 211.413 37.0308 203.458 37.0308H105.264C97.3093 37.0308 90.861 30.5825 90.861 22.6282V19.0308Z" fill="#5013FF"/>
</g>
<g clip-path="url(#clip0)">
<path d="M85 367.321V354.289H91.6425V355.049H85.8655V359.849H91.1448V360.61H85.8655V367.343H85V367.321Z" fill="#333333"/>
<path d="M94.8447 367.321V355.484H100.34V356.201H95.6669V360.501H99.8644V361.218H95.6669V366.539H100.514V367.3H94.8447V367.321Z" fill="#333333"/>
<path d="M109.32 366.713H108.822L105.403 358.35C105.252 358.025 105.122 357.634 104.971 357.199C104.971 357.199 104.971 357.264 104.927 357.416C104.884 357.525 104.884 357.699 104.862 357.916C104.819 358.133 104.819 358.264 104.797 358.416L103.434 367.364H102.612L104.538 355.44H105.035L108.714 364.171C108.995 364.888 109.146 365.279 109.146 365.322C109.211 365.062 109.406 364.671 109.644 364.171L113.755 355.396H114.253L116.027 367.321H115.161L113.885 358.329C113.82 357.721 113.733 357.33 113.733 357.156L113.193 358.372L109.32 366.713Z" fill="#333333"/>
<path d="M119.164 367.321V355.484H119.987V367.343L119.164 367.321Z" fill="#333333"/>
<path d="M127.754 355.375C129.572 355.375 131.108 355.94 132.319 357.048C133.531 358.156 134.137 359.698 134.137 361.631C134.137 363.564 133.574 365.041 132.471 365.997C131.367 366.974 129.896 367.473 128.122 367.473C126.91 367.473 125.634 367.408 124.335 367.3V355.484C125.309 355.397 126.434 355.375 127.754 355.375ZM128.122 366.713C129.658 366.713 130.913 366.279 131.865 365.454C132.795 364.628 133.293 363.347 133.293 361.653C133.293 359.98 132.752 358.612 131.692 357.613C130.632 356.614 129.334 356.114 127.776 356.114C126.672 356.114 125.807 356.157 125.244 356.179V366.561C125.937 366.692 126.91 366.713 128.122 366.713Z" fill="#333333"/>
<path d="M138.14 363.237L136.474 367.364H135.608L140.563 355.44H141.061L146.059 367.364H145.128L143.419 363.237H138.14ZM140.736 356.765C140.563 357.308 140.39 357.764 140.238 358.133L138.421 362.499H143.051L141.277 358.133C141.017 357.482 140.823 357.025 140.736 356.765Z" fill="#333333"/>
<path d="M89.825 387.238V374.206H96.4674V374.966H90.6688V379.766H95.9481V380.527H90.6688V387.26H89.825V387.238Z" fill="#333333"/>
<path d="M104.624 387.412C102.958 387.412 101.53 386.847 100.384 385.653C99.2369 384.48 98.6743 383.046 98.6743 381.331C98.6743 379.615 99.2369 378.181 100.384 377.008C101.53 375.835 102.958 375.249 104.624 375.249C106.29 375.249 107.718 375.814 108.865 377.008C110.012 378.181 110.574 379.615 110.574 381.331C110.574 383.046 110.012 384.48 108.865 385.653C107.675 386.847 106.29 387.412 104.624 387.412ZM104.624 375.944C103.153 375.944 101.941 376.444 100.989 377.486C100.016 378.529 99.5614 379.767 99.5614 381.287C99.5614 382.808 100.016 384.046 100.989 385.088C101.963 386.131 103.175 386.63 104.624 386.63C106.074 386.63 107.307 386.131 108.259 385.088C109.233 384.046 109.687 382.808 109.687 381.287C109.687 379.767 109.233 378.529 108.259 377.486C107.286 376.487 106.074 375.944 104.624 375.944Z" fill="#333333"/>
<path d="M114.166 387.238V375.445C115.205 375.379 116.092 375.292 116.806 375.292C117.909 375.292 118.84 375.575 119.554 376.161C120.268 376.726 120.657 377.551 120.657 378.637C120.657 379.354 120.441 380.027 120.051 380.636C119.619 381.244 119.164 381.743 118.667 382.113C120.095 384.046 120.982 385.197 121.35 385.544C122.02 386.261 122.778 386.652 123.6 386.761L123.557 387.325C122.886 387.325 122.345 387.217 121.912 387.043C121.479 386.869 121.047 386.543 120.657 386.066C120.225 385.609 119.337 384.415 117.909 382.46C116.914 382.46 115.94 382.417 115.01 382.351V387.217L114.166 387.238ZM117.455 381.787C117.909 381.787 118.45 381.461 118.991 380.853C119.532 380.201 119.813 379.484 119.813 378.637C119.813 377.812 119.532 377.16 118.948 376.704C118.385 376.27 117.628 376.053 116.741 376.053C116.243 376.053 115.681 376.096 115.032 376.118V381.656C115.876 381.743 116.698 381.787 117.455 381.787Z" fill="#333333"/>
<path d="M133.964 386.651C133.077 387.151 131.778 387.412 130.177 387.412C128.576 387.412 127.148 386.847 125.893 385.652C124.638 384.458 124.032 383.046 124.032 381.287C124.032 379.571 124.573 378.094 125.634 376.921C126.694 375.748 128.1 375.162 129.766 375.162C131.129 375.162 132.471 375.379 133.791 375.813L133.574 376.487C132.319 376.096 130.999 375.922 129.658 375.922C128.317 375.922 127.191 376.421 126.261 377.464C125.331 378.506 124.898 379.745 124.898 381.265C124.898 382.785 125.439 384.023 126.499 385.066C127.559 386.108 128.771 386.651 130.177 386.651C131.562 386.651 132.752 386.478 133.639 386.087L133.964 386.651Z" fill="#333333"/>
<path d="M136.95 387.238V375.379H142.445V376.096H137.772V380.396H141.969V381.113H137.772V386.456H142.618V387.216H136.95V387.238Z" fill="#333333"/>
<path d="M217.892 404.701H156.011C154.627 404.701 153.502 403.572 153.502 402.182V339.52C153.502 338.129 154.627 337 156.011 337H217.892C219.277 337 220.402 338.129 220.402 339.52V402.182C220.402 403.572 219.255 404.701 217.892 404.701Z" fill="#F84841"/>
<path d="M192.253 391.561C192.145 391.191 192.015 390.822 191.972 390.453C191.842 388.846 192.08 387.282 192.534 385.74C192.577 385.544 192.729 385.37 192.88 385.262C194.633 383.828 196.407 382.417 198.181 380.983C199.523 379.897 201.016 378.985 202.098 377.595C202.963 376.509 203.699 375.314 203.98 373.924C204.11 373.294 204.131 372.621 203.893 371.947C203.742 372.49 203.612 373.033 203.417 373.576C202.963 374.858 202.141 375.901 201.275 376.9C200.194 378.159 198.809 379.072 197.467 380.006C195.325 381.504 193.183 383.003 190.955 384.393C188.466 385.935 186.389 387.933 184.529 390.149C182.798 392.169 181.305 394.362 180.201 396.795C180.158 396.904 179.985 397.077 179.942 397.077C179.79 397.034 179.617 396.925 179.574 396.795C179.098 395.753 178.557 394.71 178.146 393.646C177.367 391.647 177.042 389.541 177.064 387.412C177.107 385.284 177.54 383.198 178.665 381.374C179.271 380.331 180.115 379.376 181.045 378.616C182.689 377.182 184.464 375.901 186.195 374.554C186.562 374.272 186.93 373.946 187.341 373.685C187.471 373.576 187.666 373.49 187.839 373.468C187.493 375.01 186.671 376.335 186.065 377.768C186.108 377.79 186.151 377.855 186.195 377.877C186.519 377.616 186.865 377.377 187.147 377.073C188.791 375.466 189.873 373.555 190.652 371.426C191.322 369.558 191.712 367.647 191.387 365.649C191.041 363.564 190.349 361.631 189.289 359.828C188.726 358.872 188.034 357.96 187.406 357.026C187.363 356.939 187.255 356.874 187.082 356.874C187.19 357.134 187.276 357.417 187.363 357.677C188.185 359.915 188.64 362.195 188.38 364.606C188.272 365.627 187.817 366.496 187.125 367.278C186.411 368.081 185.589 368.212 184.529 367.625C183.793 367.191 183.122 366.67 182.43 366.127C181.24 365.258 180.093 364.259 178.708 363.716C178.622 363.694 178.514 363.672 178.362 363.694C178.492 363.846 178.6 364.041 178.73 364.172C179.812 365.258 180.699 366.539 181.305 367.951C182.127 369.841 182.387 371.817 181.781 373.837C181.629 374.402 181.305 374.901 181.045 375.401C180.85 375.77 180.547 375.944 180.093 375.857C178.946 375.64 177.843 375.662 176.696 375.857C175.484 376.053 174.381 376.465 173.321 377.117C172.023 377.92 171.2 379.093 170.595 380.44C170.335 381.026 170.205 381.07 169.751 380.592C168.604 379.397 167.717 378.094 167.263 376.487C167.241 376.4 167.176 376.291 167.154 376.226C167.111 376.226 167.046 376.226 167.003 376.248C167.025 376.748 167.046 377.269 167.089 377.768C167.089 377.899 167.176 378.029 167.176 378.159C167.176 378.246 167.154 378.377 167.089 378.42C167.068 378.442 166.938 378.42 166.851 378.377C165.899 377.638 165.012 376.834 164.969 375.531C164.947 375.053 165.077 374.576 165.207 374.119C165.705 372.469 166.549 371.035 167.717 369.776C167.977 369.493 168.258 369.493 168.561 369.689C169.707 370.492 170.876 371.231 172.001 372.056C172.737 372.556 173.451 373.142 174.165 373.685C174.273 373.772 174.381 373.837 174.489 373.924C174.814 374.119 174.944 374.033 174.922 373.685C174.879 372.664 174.381 371.882 173.472 371.448C172.564 371.057 171.633 370.709 170.746 370.297C169.578 369.797 168.539 369.037 168.02 367.842C167.76 367.256 167.587 366.583 167.544 365.953C167.501 365.323 168.085 364.997 168.561 364.758C169.188 364.411 169.859 364.15 170.573 363.824C170.465 363.694 170.357 363.585 170.248 363.455C169.967 363.129 169.967 362.869 170.378 362.717C170.833 362.521 171.33 362.456 171.806 362.326C171.958 362.304 172.088 362.282 172.261 362.239C172.282 362.195 172.282 362.13 172.304 362.087C171.979 361.956 171.698 361.739 171.374 361.696C170.27 361.457 169.123 361.457 168.063 361.804C167.198 362.087 166.505 361.804 165.748 361.565C165.705 361.544 165.618 361.24 165.661 361.174C165.813 360.979 166.008 360.827 166.224 360.697C167.89 359.524 169.556 358.373 171.265 357.2C171.374 357.156 171.482 357.091 171.547 357.048C171.503 356.961 171.46 356.917 171.417 356.83C171.092 356.917 170.746 357.026 170.443 357.091C170.313 357.113 170.183 357.113 170.054 357.113C170.054 356.961 170.032 356.787 170.097 356.657C170.53 355.831 171.157 355.136 171.958 354.724C173.018 354.137 173.104 353.29 172.91 352.269C172.823 351.813 172.715 351.4 172.65 350.944C172.628 350.792 172.65 350.619 172.65 350.445C172.672 350.423 172.737 350.401 172.758 350.358C173.126 350.792 173.537 351.205 174.013 351.77C174.056 351.444 174.121 351.227 174.121 351.031C174.23 350.076 174.273 349.12 174.403 348.164C174.446 347.708 174.684 347.361 175.117 347.122C177.107 346.014 179.098 344.863 181.11 343.798C182.084 343.255 183.101 342.756 184.269 342.93C185.005 343.038 185.762 343.299 186.498 343.516C186.627 343.538 186.736 343.712 186.93 343.864C185.957 344.211 184.94 344.341 184.226 345.036C184.226 345.08 184.247 345.123 184.247 345.167C184.399 345.145 184.593 345.145 184.745 345.08C186.411 344.515 188.12 344.124 189.851 343.994C190.284 343.972 190.782 343.994 191.171 344.146C193.27 344.971 195.369 345.84 197.446 346.665C198.636 347.143 199.826 347.621 201.059 348.012C202.076 348.338 202.66 349.033 203.093 349.858C204.066 351.661 205.105 353.442 205.992 355.31C206.62 356.635 207.031 358.112 207.485 359.524C207.615 359.98 207.593 360.479 207.637 360.957C207.55 360.979 207.507 361.001 207.42 361.044C207.269 360.805 207.074 360.588 206.923 360.349C206.144 359.154 205.408 357.938 204.607 356.722C204.456 356.483 204.24 356.287 204.045 356.092C204.002 356.114 203.958 356.135 203.915 356.179C203.958 356.374 204.023 356.57 204.131 356.765C205.213 359.154 206.36 361.522 207.42 363.933C208.113 365.54 208.74 367.126 209.324 368.776C209.649 369.689 209.605 370.666 209.541 371.643C209.303 374.25 208.264 376.509 206.706 378.529C204.932 380.809 202.855 382.807 200.453 384.458C198.765 385.631 197.078 386.847 195.433 388.129C194.395 388.932 193.551 389.91 192.88 391.061C192.751 391.278 192.621 391.452 192.491 391.669C192.383 391.561 192.339 391.561 192.253 391.561ZM186.606 351.574C186.584 351.618 186.584 351.683 186.562 351.726C186.779 351.878 186.995 352.009 187.168 352.182C188.445 353.334 189.765 354.441 190.976 355.636C191.885 356.548 192.751 357.482 193.486 358.503C194.936 360.545 195.845 362.847 196.277 365.345C196.84 368.755 196.191 371.861 194.243 374.706C194.157 374.815 194.049 374.901 193.962 374.988C193.919 374.988 193.876 374.967 193.832 374.967C193.811 374.771 193.789 374.597 193.811 374.38C193.897 372.708 193.811 371.035 193.313 369.406C193.27 369.276 193.183 369.146 193.097 369.015C193.053 369.015 192.989 369.037 192.945 369.037C192.837 373.316 191.647 377.291 189.678 381.092C190.068 380.896 190.414 380.701 190.738 380.462C192.729 378.833 194.352 376.9 195.671 374.706C196.71 372.968 197.446 371.144 197.705 369.124C197.922 367.56 197.965 365.975 197.813 364.411C197.792 364.193 197.835 363.976 197.857 363.781C197.9 363.781 197.965 363.781 198.008 363.781C198.917 365.432 199.177 367.234 199.501 369.08C199.588 369.037 199.631 368.972 199.631 368.928C199.653 368.82 199.653 368.69 199.674 368.581C199.826 366.322 199.566 364.107 198.592 362.065C198.268 361.392 198.138 360.87 198.787 360.371C198.83 360.349 198.83 360.262 198.874 360.219C199.956 358.351 200.367 356.309 200.042 354.181C199.804 352.638 199.328 352.182 197.792 352.269C196.191 352.356 194.59 352.378 192.989 352.378C191.084 352.378 189.202 352.03 187.32 351.683C187.06 351.596 186.822 351.596 186.606 351.574ZM175.766 356.809C175.744 356.83 175.722 356.896 175.679 356.917C175.766 357.178 175.831 357.46 175.917 357.721C176.004 357.982 176.004 358.199 175.722 358.416C175.182 358.785 174.662 359.198 174.121 359.567C174.035 359.654 173.97 359.763 173.84 359.936C174.078 359.915 174.186 359.915 174.294 359.893C174.922 359.741 175.571 359.524 176.22 359.35C177.626 359.068 179.033 358.763 180.461 358.525C181.153 358.416 181.867 358.416 182.581 358.373C182.819 358.351 183.122 358.264 182.906 357.982C182.278 357.113 181.608 356.179 180.461 356.005C179.357 355.853 178.211 355.788 177.086 355.744C176.458 355.723 176.415 355.788 176.372 356.439C176.35 356.787 176.307 357.069 175.766 356.809ZM179.249 351.748C179.487 351.748 179.682 351.77 179.833 351.748C180.915 351.639 182.04 351.531 183.122 351.379C183.555 351.335 183.988 351.162 184.399 350.988C185.091 350.64 185.74 350.249 186.411 349.837C186.562 349.728 186.736 349.619 186.865 349.511C186.844 349.489 186.844 349.424 186.822 349.402C186.671 349.424 186.541 349.446 186.368 349.511C185.935 349.663 185.546 349.88 185.091 349.967C183.49 350.336 181.889 350.662 180.288 351.009C179.855 351.118 179.422 351.162 179.249 351.748ZM180.418 348.034C180.374 347.99 180.331 347.947 180.288 347.904C178.535 349.185 177.021 350.705 175.701 352.486C176.177 352.465 176.631 352.378 177.042 352.248C177.194 352.204 177.324 352.052 177.41 351.922C178.038 351.075 178.622 350.184 179.271 349.337C179.639 348.881 180.028 348.447 180.418 348.034Z" fill="white"/>
<path d="M176.956 381.917C176.912 382.047 176.869 382.199 176.826 382.351C175.917 384.675 175.787 387.043 176.134 389.454C176.22 389.953 176.35 390.475 176.415 390.952C176.436 391.191 176.415 391.452 176.415 391.691C176.198 391.561 175.917 391.495 175.787 391.322C175.052 390.388 174.273 389.475 173.624 388.498C173.191 387.89 172.931 387.195 172.65 386.5C172.196 385.392 172.369 384.328 172.931 383.307C173.364 382.59 173.84 381.873 174.23 381.135C174.489 380.635 174.706 380.071 174.944 379.528C175.095 379.137 175.311 379.05 175.549 379.397C176.025 380.092 176.458 380.831 176.869 381.548C176.934 381.635 176.934 381.765 176.956 381.917Z" fill="white"/>
<path d="M167.63 368.625C167.587 368.733 167.522 368.864 167.414 368.972C167.176 369.211 166.938 369.45 166.7 369.667C166.484 369.884 166.311 369.797 166.159 369.559C165.597 368.451 164.969 367.343 164.493 366.214C164.06 365.193 163.909 364.085 164.298 362.999C164.342 362.869 164.493 362.782 164.58 362.673C164.688 362.782 164.839 362.891 164.861 362.999C164.991 363.911 165.661 364.433 166.289 364.976C166.635 365.258 166.787 365.584 166.873 366.04C167.003 366.778 167.263 367.539 167.457 368.277C167.544 368.386 167.609 368.494 167.63 368.625Z" fill="white"/>
<path d="M197.662 353.399C197.532 353.442 197.424 353.529 197.294 353.594C196.277 354.072 195.282 354.55 194.265 355.049C193.984 355.201 193.703 355.419 193.4 355.527C193.27 355.571 193.01 355.549 192.902 355.484C192.318 354.919 191.755 354.311 191.214 353.703C191.128 353.616 191.128 353.485 191.084 353.377C191.193 353.333 191.322 353.247 191.431 353.247C193.291 353.225 195.152 353.203 196.991 353.16C197.208 353.16 197.424 353.181 197.619 353.203C197.64 353.29 197.662 353.355 197.662 353.399Z" fill="white"/>
<path d="M196.797 357.004C196.537 357.048 196.364 357.091 196.212 357.113C195.758 357.222 195.715 357.352 195.931 357.743C196.256 358.286 196.494 358.851 196.494 359.502C196.494 359.633 196.472 359.763 196.407 360.045C196.191 359.806 196.061 359.676 195.953 359.546C195.412 358.699 194.893 357.852 194.33 357.026C194.114 356.679 194.135 356.57 194.546 356.548C195.304 356.461 196.018 356.527 196.797 357.004Z" fill="white"/>
</g>
<path d="M63 173C63 155.879 76.8792 142 94 142H347C364.121 142 378 155.879 378 173V258C378 275.121 364.121 289 347 289H151.388H109.545H94C76.8792 289 63 275.121 63 258V173Z" fill="#FFDA18"/>
<path d="M106.343 315C95.4649 308.368 94.3936 294.903 95.2176 289H108.609H122C107.167 293.823 105.381 308.343 106.343 315Z" fill="#FFDA18"/>
<path d="M108.064 197.448L105.952 191.676C105.848 191.42 105.74 191.116 105.628 190.764C105.516 190.412 105.404 190.032 105.292 189.624C105.188 190.032 105.08 190.416 104.968 190.776C104.856 191.128 104.748 191.436 104.644 191.7L102.544 197.448H108.064ZM113.764 204H111.268C110.988 204 110.76 203.932 110.584 203.796C110.408 203.652 110.276 203.476 110.188 203.268L108.892 199.728H101.704L100.408 203.268C100.344 203.452 100.22 203.62 100.036 203.772C99.852 203.924 99.62 204 99.34 204H96.832L103.648 186.648H106.948L113.764 204ZM120.062 201.972C120.686 201.972 121.178 201.82 121.538 201.516C121.906 201.212 122.09 200.796 122.09 200.268C122.09 200.044 122.058 199.836 121.994 199.644C121.938 199.444 121.834 199.272 121.682 199.128C121.53 198.984 121.322 198.872 121.058 198.792C120.802 198.712 120.474 198.672 120.074 198.672H117.854V201.972H120.062ZM117.854 193.62V196.848H119.798C120.086 196.848 120.35 196.808 120.59 196.728C120.83 196.64 121.038 196.52 121.214 196.368C121.39 196.208 121.526 196.024 121.622 195.816C121.718 195.6 121.766 195.364 121.766 195.108C121.766 194.924 121.734 194.744 121.67 194.568C121.606 194.384 121.498 194.224 121.346 194.088C121.194 193.944 120.99 193.832 120.734 193.752C120.486 193.664 120.174 193.62 119.798 193.62H117.854ZM119.882 191.688C120.658 191.688 121.326 191.764 121.886 191.916C122.454 192.068 122.922 192.276 123.29 192.54C123.658 192.804 123.93 193.12 124.106 193.488C124.282 193.848 124.37 194.24 124.37 194.664C124.37 194.928 124.334 195.204 124.262 195.492C124.198 195.772 124.078 196.044 123.902 196.308C123.734 196.572 123.502 196.812 123.206 197.028C122.91 197.244 122.534 197.412 122.078 197.532C122.486 197.62 122.858 197.744 123.194 197.904C123.53 198.056 123.818 198.252 124.058 198.492C124.298 198.724 124.482 199 124.61 199.32C124.746 199.632 124.814 199.984 124.814 200.376C124.814 201 124.682 201.54 124.418 201.996C124.162 202.452 123.814 202.828 123.374 203.124C122.942 203.42 122.438 203.64 121.862 203.784C121.294 203.928 120.698 204 120.074 204H115.034V191.688H119.882ZM137.571 193.884H133.179V204H130.215V193.884H125.835V191.688H137.571V193.884ZM144.412 191.496C145.324 191.496 146.152 191.644 146.896 191.94C147.648 192.236 148.288 192.656 148.816 193.2C149.352 193.744 149.764 194.408 150.052 195.192C150.34 195.976 150.484 196.852 150.484 197.82C150.484 198.796 150.34 199.676 150.052 200.46C149.764 201.244 149.352 201.912 148.816 202.464C148.288 203.016 147.648 203.44 146.896 203.736C146.152 204.032 145.324 204.18 144.412 204.18C143.492 204.18 142.656 204.032 141.904 203.736C141.152 203.44 140.508 203.016 139.972 202.464C139.444 201.912 139.032 201.244 138.736 200.46C138.448 199.676 138.304 198.796 138.304 197.82C138.304 196.852 138.448 195.976 138.736 195.192C139.032 194.408 139.444 193.744 139.972 193.2C140.508 192.656 141.152 192.236 141.904 191.94C142.656 191.644 143.492 191.496 144.412 191.496ZM144.412 201.9C145.436 201.9 146.192 201.556 146.68 200.868C147.176 200.18 147.424 199.172 147.424 197.844C147.424 196.516 147.176 195.504 146.68 194.808C146.192 194.112 145.436 193.764 144.412 193.764C143.372 193.764 142.6 194.116 142.096 194.82C141.6 195.516 141.352 196.524 141.352 197.844C141.352 199.164 141.6 200.172 142.096 200.868C142.6 201.556 143.372 201.9 144.412 201.9ZM167.013 191.664V204H164.337V197.136C164.337 196.856 164.349 196.54 164.373 196.188C164.405 195.836 164.453 195.508 164.517 195.204L160.893 201.852C160.717 202.196 160.437 202.368 160.053 202.368H159.741C159.357 202.368 159.077 202.196 158.901 201.852L155.229 195.168C155.285 195.472 155.329 195.804 155.361 196.164C155.401 196.524 155.421 196.848 155.421 197.136V204H152.745V191.664H155.193C155.401 191.664 155.605 191.708 155.805 191.796C156.013 191.884 156.185 192.06 156.321 192.324L159.225 197.508C159.353 197.748 159.473 198.004 159.585 198.276C159.697 198.54 159.801 198.808 159.897 199.08C159.993 198.808 160.093 198.536 160.197 198.264C160.309 197.992 160.429 197.74 160.557 197.508L163.437 192.324C163.581 192.052 163.753 191.876 163.953 191.796C164.153 191.708 164.357 191.664 164.565 191.664H167.013ZM176.452 198.744C175.596 198.784 174.876 198.86 174.292 198.972C173.708 199.076 173.24 199.212 172.888 199.38C172.536 199.548 172.284 199.744 172.132 199.968C171.98 200.192 171.904 200.436 171.904 200.7C171.904 201.22 172.056 201.592 172.36 201.816C172.672 202.04 173.076 202.152 173.572 202.152C174.18 202.152 174.704 202.044 175.144 201.828C175.592 201.604 176.028 201.268 176.452 200.82V198.744ZM169.66 193.404C171.076 192.108 172.78 191.46 174.772 191.46C175.492 191.46 176.136 191.58 176.704 191.82C177.272 192.052 177.752 192.38 178.144 192.804C178.536 193.22 178.832 193.72 179.032 194.304C179.24 194.888 179.344 195.528 179.344 196.224V204H178C177.72 204 177.504 203.96 177.352 203.88C177.2 203.792 177.08 203.62 176.992 203.364L176.728 202.476C176.416 202.756 176.112 203.004 175.816 203.22C175.52 203.428 175.212 203.604 174.892 203.748C174.572 203.892 174.228 204 173.86 204.072C173.5 204.152 173.1 204.192 172.66 204.192C172.14 204.192 171.66 204.124 171.22 203.988C170.78 203.844 170.4 203.632 170.08 203.352C169.76 203.072 169.512 202.724 169.336 202.308C169.16 201.892 169.072 201.408 169.072 200.856C169.072 200.544 169.124 200.236 169.228 199.932C169.332 199.62 169.5 199.324 169.732 199.044C169.972 198.764 170.28 198.5 170.656 198.252C171.032 198.004 171.492 197.788 172.036 197.604C172.588 197.42 173.228 197.272 173.956 197.16C174.684 197.04 175.516 196.968 176.452 196.944V196.224C176.452 195.4 176.276 194.792 175.924 194.4C175.572 194 175.064 193.8 174.4 193.8C173.92 193.8 173.52 193.856 173.2 193.968C172.888 194.08 172.612 194.208 172.372 194.352C172.132 194.488 171.912 194.612 171.712 194.724C171.52 194.836 171.304 194.892 171.064 194.892C170.856 194.892 170.68 194.84 170.536 194.736C170.392 194.624 170.276 194.496 170.188 194.352L169.66 193.404ZM192.485 193.884H188.093V204H185.129V193.884H180.749V191.688H192.485V193.884ZM205.294 191.688V204H202.33V196.812C202.33 196.628 202.338 196.428 202.354 196.212C202.378 195.988 202.406 195.764 202.438 195.54C202.278 195.908 202.102 196.232 201.91 196.512C201.894 196.528 201.814 196.64 201.67 196.848C201.526 197.048 201.338 197.308 201.106 197.628C200.882 197.948 200.626 198.312 200.338 198.72C200.05 199.12 199.758 199.528 199.462 199.944C198.766 200.928 197.978 202.04 197.098 203.28C196.986 203.448 196.838 203.612 196.654 203.772C196.478 203.932 196.274 204.012 196.042 204.012H194.23V191.7H197.194V198.888C197.194 199.072 197.182 199.276 197.158 199.5C197.142 199.716 197.118 199.936 197.086 200.16C197.262 199.768 197.438 199.444 197.614 199.188C197.622 199.172 197.698 199.064 197.842 198.864C197.986 198.664 198.17 198.404 198.394 198.084C198.626 197.764 198.886 197.404 199.174 197.004C199.462 196.596 199.754 196.18 200.05 195.756C200.746 194.772 201.538 193.66 202.426 192.42C202.538 192.244 202.686 192.08 202.87 191.928C203.054 191.768 203.262 191.688 203.494 191.688H205.294ZM207.502 193.02C207.966 192.572 208.542 192.208 209.23 191.928C209.918 191.64 210.742 191.496 211.702 191.496C212.462 191.496 213.138 191.588 213.73 191.772C214.322 191.948 214.818 192.192 215.218 192.504C215.626 192.808 215.934 193.16 216.142 193.56C216.358 193.952 216.466 194.364 216.466 194.796C216.466 195.028 216.43 195.272 216.358 195.528C216.294 195.776 216.182 196.02 216.022 196.26C215.87 196.5 215.666 196.724 215.41 196.932C215.154 197.132 214.838 197.304 214.462 197.448C215.134 197.704 215.674 198.08 216.082 198.576C216.498 199.072 216.706 199.684 216.706 200.412C216.706 201.012 216.566 201.544 216.286 202.008C216.014 202.472 215.65 202.868 215.194 203.196C214.738 203.516 214.214 203.76 213.622 203.928C213.038 204.096 212.434 204.18 211.81 204.18C211.458 204.18 211.078 204.148 210.67 204.084C210.27 204.02 209.866 203.912 209.458 203.76C209.05 203.6 208.65 203.392 208.258 203.136C207.866 202.872 207.51 202.548 207.19 202.164L208.042 201.084C208.162 200.9 208.342 200.808 208.582 200.808C208.766 200.808 208.942 200.868 209.11 200.988C209.278 201.1 209.47 201.228 209.686 201.372C209.91 201.508 210.174 201.636 210.478 201.756C210.782 201.868 211.162 201.924 211.618 201.924C212.362 201.924 212.926 201.756 213.31 201.42C213.694 201.084 213.886 200.664 213.886 200.16C213.886 199.664 213.686 199.276 213.286 198.996C212.894 198.716 212.254 198.576 211.366 198.576H209.974V196.644H211.366C212.142 196.644 212.738 196.508 213.154 196.236C213.57 195.964 213.778 195.604 213.778 195.156C213.778 194.748 213.594 194.412 213.226 194.148C212.866 193.884 212.33 193.752 211.618 193.752C211.194 193.752 210.834 193.796 210.538 193.884C210.242 193.972 209.986 194.068 209.77 194.172C209.562 194.268 209.386 194.36 209.242 194.448C209.098 194.536 208.962 194.58 208.834 194.58C208.698 194.58 208.582 194.556 208.486 194.508C208.39 194.452 208.286 194.336 208.174 194.16L207.502 193.02ZM225.531 198.744C224.675 198.784 223.955 198.86 223.371 198.972C222.787 199.076 222.319 199.212 221.967 199.38C221.615 199.548 221.363 199.744 221.211 199.968C221.059 200.192 220.983 200.436 220.983 200.7C220.983 201.22 221.135 201.592 221.439 201.816C221.751 202.04 222.155 202.152 222.651 202.152C223.259 202.152 223.783 202.044 224.223 201.828C224.671 201.604 225.107 201.268 225.531 200.82V198.744ZM218.739 193.404C220.155 192.108 221.859 191.46 223.851 191.46C224.571 191.46 225.215 191.58 225.783 191.82C226.351 192.052 226.831 192.38 227.223 192.804C227.615 193.22 227.911 193.72 228.111 194.304C228.319 194.888 228.423 195.528 228.423 196.224V204H227.079C226.799 204 226.583 203.96 226.431 203.88C226.279 203.792 226.159 203.62 226.071 203.364L225.807 202.476C225.495 202.756 225.191 203.004 224.895 203.22C224.599 203.428 224.291 203.604 223.971 203.748C223.651 203.892 223.307 204 222.939 204.072C222.579 204.152 222.179 204.192 221.739 204.192C221.219 204.192 220.739 204.124 220.299 203.988C219.859 203.844 219.479 203.632 219.159 203.352C218.839 203.072 218.591 202.724 218.415 202.308C218.239 201.892 218.151 201.408 218.151 200.856C218.151 200.544 218.203 200.236 218.307 199.932C218.411 199.62 218.579 199.324 218.811 199.044C219.051 198.764 219.359 198.5 219.735 198.252C220.111 198.004 220.571 197.788 221.115 197.604C221.667 197.42 222.307 197.272 223.035 197.16C223.763 197.04 224.595 196.968 225.531 196.944V196.224C225.531 195.4 225.355 194.792 225.003 194.4C224.651 194 224.143 193.8 223.479 193.8C222.999 193.8 222.599 193.856 222.279 193.968C221.967 194.08 221.691 194.208 221.451 194.352C221.211 194.488 220.991 194.612 220.791 194.724C220.599 194.836 220.383 194.892 220.143 194.892C219.935 194.892 219.759 194.84 219.615 194.736C219.471 194.624 219.355 194.496 219.267 194.352L218.739 193.404ZM244.21 201.804V207.24C244.21 207.512 244.13 207.728 243.97 207.888C243.81 208.048 243.606 208.128 243.358 208.128H241.51V204H231.214V191.688H234.178V201.804H238.978V191.688H241.942V201.804H244.21ZM257.137 191.688V204H254.173V196.812C254.173 196.628 254.181 196.428 254.197 196.212C254.221 195.988 254.249 195.764 254.281 195.54C254.121 195.908 253.945 196.232 253.753 196.512C253.737 196.528 253.657 196.64 253.513 196.848C253.369 197.048 253.181 197.308 252.949 197.628C252.725 197.948 252.469 198.312 252.181 198.72C251.893 199.12 251.601 199.528 251.305 199.944C250.609 200.928 249.821 202.04 248.941 203.28C248.829 203.448 248.681 203.612 248.497 203.772C248.321 203.932 248.117 204.012 247.885 204.012H246.073V191.7H249.037V198.888C249.037 199.072 249.025 199.276 249.001 199.5C248.985 199.716 248.961 199.936 248.929 200.16C249.105 199.768 249.281 199.444 249.457 199.188C249.465 199.172 249.541 199.064 249.685 198.864C249.829 198.664 250.013 198.404 250.237 198.084C250.469 197.764 250.729 197.404 251.017 197.004C251.305 196.596 251.597 196.18 251.893 195.756C252.589 194.772 253.381 193.66 254.269 192.42C254.381 192.244 254.529 192.08 254.713 191.928C254.897 191.768 255.105 191.688 255.337 191.688H257.137ZM266.486 197.232V193.62H264.878C264.502 193.62 264.19 193.676 263.942 193.788C263.694 193.892 263.49 194.032 263.33 194.208C263.178 194.376 263.07 194.568 263.006 194.784C262.942 195 262.91 195.212 262.91 195.42C262.91 195.988 263.098 196.432 263.474 196.752C263.858 197.072 264.37 197.232 265.01 197.232H266.486ZM269.306 191.688V204H266.486V199.056H265.97C265.73 199.056 265.53 199.08 265.37 199.128C265.218 199.168 265.086 199.228 264.974 199.308C264.87 199.38 264.778 199.472 264.698 199.584C264.626 199.696 264.55 199.82 264.47 199.956L262.502 202.98C262.406 203.148 262.302 203.296 262.19 203.424C262.086 203.552 261.962 203.66 261.818 203.748C261.682 203.828 261.518 203.892 261.326 203.94C261.142 203.98 260.918 204 260.654 204H258.602L261.71 199.656C261.878 199.352 262.074 199.108 262.298 198.924C262.522 198.74 262.786 198.592 263.09 198.48C262.514 198.376 262.022 198.216 261.614 198C261.214 197.776 260.89 197.52 260.642 197.232C260.394 196.936 260.214 196.62 260.102 196.284C259.99 195.948 259.934 195.616 259.934 195.288C259.934 194.832 260.022 194.388 260.198 193.956C260.382 193.524 260.67 193.14 261.062 192.804C261.454 192.468 261.958 192.2 262.574 192C263.19 191.792 263.93 191.688 264.794 191.688H269.306ZM109.528 225.688V238H106.564V230.812C106.564 230.628 106.572 230.428 106.588 230.212C106.612 229.988 106.64 229.764 106.672 229.54C106.512 229.908 106.336 230.232 106.144 230.512C106.128 230.528 106.048 230.64 105.904 230.848C105.76 231.048 105.572 231.308 105.34 231.628C105.116 231.948 104.86 232.312 104.572 232.72C104.284 233.12 103.992 233.528 103.696 233.944C103 234.928 102.212 236.04 101.332 237.28C101.22 237.448 101.072 237.612 100.888 237.772C100.712 237.932 100.508 238.012 100.276 238.012H98.464V225.7H101.428V232.888C101.428 233.072 101.416 233.276 101.392 233.5C101.376 233.716 101.352 233.936 101.32 234.16C101.496 233.768 101.672 233.444 101.848 233.188C101.856 233.172 101.932 233.064 102.076 232.864C102.22 232.664 102.404 232.404 102.628 232.084C102.86 231.764 103.12 231.404 103.408 231.004C103.696 230.596 103.988 230.18 104.284 229.756C104.98 228.772 105.772 227.66 106.66 226.42C106.772 226.244 106.92 226.08 107.104 225.928C107.288 225.768 107.496 225.688 107.728 225.688H109.528ZM129.476 225.688L122.768 241.384C122.68 241.592 122.564 241.748 122.42 241.852C122.284 241.964 122.072 242.02 121.784 242.02H119.576L121.88 237.076L116.9 225.688H119.504C119.736 225.688 119.916 225.744 120.044 225.856C120.18 225.968 120.28 226.096 120.344 226.24L122.96 232.624C123.048 232.84 123.12 233.056 123.176 233.272C123.24 233.488 123.3 233.708 123.356 233.932C123.428 233.708 123.5 233.488 123.572 233.272C123.644 233.048 123.724 232.828 123.812 232.612L126.284 226.24C126.348 226.08 126.452 225.948 126.596 225.844C126.748 225.74 126.916 225.688 127.1 225.688H129.476ZM141.508 227.884H137.116V238H134.152V227.884H129.772V225.688H141.508V227.884ZM146.217 234.808C146.553 235.216 146.917 235.504 147.309 235.672C147.709 235.84 148.141 235.924 148.605 235.924C149.053 235.924 149.457 235.84 149.817 235.672C150.177 235.504 150.481 235.248 150.729 234.904C150.985 234.56 151.181 234.128 151.317 233.608C151.453 233.08 151.521 232.46 151.521 231.748C151.521 231.028 151.461 230.42 151.341 229.924C151.229 229.42 151.065 229.012 150.849 228.7C150.633 228.388 150.369 228.16 150.057 228.016C149.753 227.872 149.405 227.8 149.013 227.8C148.397 227.8 147.873 227.932 147.441 228.196C147.009 228.452 146.601 228.816 146.217 229.288V234.808ZM146.061 227.368C146.565 226.8 147.137 226.34 147.777 225.988C148.417 225.636 149.169 225.46 150.033 225.46C150.705 225.46 151.317 225.6 151.869 225.88C152.429 226.16 152.909 226.568 153.309 227.104C153.717 227.632 154.029 228.288 154.245 229.072C154.469 229.848 154.581 230.74 154.581 231.748C154.581 232.668 154.457 233.52 154.209 234.304C153.961 235.088 153.605 235.768 153.141 236.344C152.685 236.92 152.129 237.372 151.473 237.7C150.825 238.02 150.097 238.18 149.289 238.18C148.601 238.18 148.013 238.076 147.525 237.868C147.037 237.652 146.601 237.356 146.217 236.98V242.02H143.253V225.688H145.065C145.449 225.688 145.701 225.868 145.821 226.228L146.061 227.368ZM162.318 225.496C163.23 225.496 164.058 225.644 164.802 225.94C165.554 226.236 166.194 226.656 166.722 227.2C167.258 227.744 167.67 228.408 167.958 229.192C168.246 229.976 168.39 230.852 168.39 231.82C168.39 232.796 168.246 233.676 167.958 234.46C167.67 235.244 167.258 235.912 166.722 236.464C166.194 237.016 165.554 237.44 164.802 237.736C164.058 238.032 163.23 238.18 162.318 238.18C161.398 238.18 160.562 238.032 159.81 237.736C159.058 237.44 158.414 237.016 157.878 236.464C157.35 235.912 156.938 235.244 156.642 234.46C156.354 233.676 156.21 232.796 156.21 231.82C156.21 230.852 156.354 229.976 156.642 229.192C156.938 228.408 157.35 227.744 157.878 227.2C158.414 226.656 159.058 226.236 159.81 225.94C160.562 225.644 161.398 225.496 162.318 225.496ZM162.318 235.9C163.342 235.9 164.098 235.556 164.586 234.868C165.082 234.18 165.33 233.172 165.33 231.844C165.33 230.516 165.082 229.504 164.586 228.808C164.098 228.112 163.342 227.764 162.318 227.764C161.278 227.764 160.506 228.116 160.002 228.82C159.506 229.516 159.258 230.524 159.258 231.844C159.258 233.164 159.506 234.172 160.002 234.868C160.506 235.556 161.278 235.9 162.318 235.9ZM178.584 230.428C178.584 230.044 178.528 229.684 178.416 229.348C178.312 229.004 178.152 228.704 177.936 228.448C177.72 228.192 177.444 227.992 177.108 227.848C176.78 227.696 176.396 227.62 175.956 227.62C175.1 227.62 174.424 227.864 173.928 228.352C173.44 228.84 173.128 229.532 172.992 230.428H178.584ZM172.932 232.216C172.98 232.848 173.092 233.396 173.268 233.86C173.444 234.316 173.676 234.696 173.964 235C174.252 235.296 174.592 235.52 174.984 235.672C175.384 235.816 175.824 235.888 176.304 235.888C176.784 235.888 177.196 235.832 177.54 235.72C177.892 235.608 178.196 235.484 178.452 235.348C178.716 235.212 178.944 235.088 179.136 234.976C179.336 234.864 179.528 234.808 179.712 234.808C179.96 234.808 180.144 234.9 180.264 235.084L181.116 236.164C180.788 236.548 180.42 236.872 180.012 237.136C179.604 237.392 179.176 237.6 178.728 237.76C178.288 237.912 177.836 238.02 177.372 238.084C176.916 238.148 176.472 238.18 176.04 238.18C175.184 238.18 174.388 238.04 173.652 237.76C172.916 237.472 172.276 237.052 171.732 236.5C171.188 235.94 170.76 235.252 170.448 234.436C170.136 233.612 169.979 232.66 169.979 231.58C169.979 230.74 170.116 229.952 170.388 229.216C170.66 228.472 171.048 227.828 171.552 227.284C172.064 226.732 172.684 226.296 173.412 225.976C174.148 225.656 174.976 225.496 175.896 225.496C176.672 225.496 177.388 225.62 178.044 225.868C178.7 226.116 179.264 226.48 179.736 226.96C180.208 227.432 180.576 228.016 180.84 228.712C181.112 229.4 181.247 230.188 181.247 231.076C181.247 231.524 181.2 231.828 181.104 231.988C181.008 232.14 180.824 232.216 180.552 232.216H172.932ZM194.2 225.688V238H191.236V232.552H186.436V238H183.472V225.688H186.436V230.356H191.236V225.688H194.2ZM208.2 225.688V238H205.236V230.812C205.236 230.628 205.244 230.428 205.26 230.212C205.284 229.988 205.312 229.764 205.344 229.54C205.184 229.908 205.008 230.232 204.816 230.512C204.8 230.528 204.72 230.64 204.576 230.848C204.432 231.048 204.244 231.308 204.012 231.628C203.788 231.948 203.532 232.312 203.244 232.72C202.956 233.12 202.664 233.528 202.368 233.944C201.672 234.928 200.884 236.04 200.004 237.28C199.892 237.448 199.744 237.612 199.56 237.772C199.384 237.932 199.18 238.012 198.948 238.012H197.136V225.7H200.1V232.888C200.1 233.072 200.088 233.276 200.064 233.5C200.048 233.716 200.024 233.936 199.992 234.16C200.168 233.768 200.344 233.444 200.52 233.188C200.528 233.172 200.604 233.064 200.748 232.864C200.892 232.664 201.076 232.404 201.3 232.084C201.532 231.764 201.792 231.404 202.08 231.004C202.368 230.596 202.66 230.18 202.956 229.756C203.652 228.772 204.444 227.66 205.332 226.42C205.444 226.244 205.592 226.08 205.776 225.928C205.96 225.768 206.168 225.688 206.4 225.688H208.2ZM219.06 230.428C219.06 230.044 219.004 229.684 218.892 229.348C218.788 229.004 218.628 228.704 218.412 228.448C218.196 228.192 217.92 227.992 217.584 227.848C217.256 227.696 216.872 227.62 216.432 227.62C215.576 227.62 214.9 227.864 214.404 228.352C213.916 228.84 213.604 229.532 213.468 230.428H219.06ZM213.408 232.216C213.456 232.848 213.568 233.396 213.744 233.86C213.92 234.316 214.152 234.696 214.44 235C214.728 235.296 215.068 235.52 215.46 235.672C215.86 235.816 216.3 235.888 216.78 235.888C217.26 235.888 217.672 235.832 218.016 235.72C218.368 235.608 218.672 235.484 218.928 235.348C219.192 235.212 219.42 235.088 219.612 234.976C219.812 234.864 220.004 234.808 220.188 234.808C220.436 234.808 220.62 234.9 220.74 235.084L221.592 236.164C221.264 236.548 220.896 236.872 220.488 237.136C220.08 237.392 219.652 237.6 219.204 237.76C218.764 237.912 218.312 238.02 217.848 238.084C217.392 238.148 216.948 238.18 216.516 238.18C215.66 238.18 214.864 238.04 214.128 237.76C213.392 237.472 212.752 237.052 212.208 236.5C211.664 235.94 211.236 235.252 210.924 234.436C210.612 233.612 210.456 232.66 210.456 231.58C210.456 230.74 210.592 229.952 210.864 229.216C211.136 228.472 211.524 227.828 212.028 227.284C212.54 226.732 213.16 226.296 213.888 225.976C214.624 225.656 215.452 225.496 216.372 225.496C217.148 225.496 217.864 225.62 218.52 225.868C219.176 226.116 219.74 226.48 220.212 226.96C220.684 227.432 221.052 228.016 221.316 228.712C221.588 229.4 221.724 230.188 221.724 231.076C221.724 231.524 221.676 231.828 221.58 231.988C221.484 232.14 221.3 232.216 221.028 232.216H213.408ZM240.512 238H237.548V227.884H232.748V238H229.784V225.688H240.512V238ZM246.412 234.808C246.748 235.216 247.112 235.504 247.504 235.672C247.904 235.84 248.336 235.924 248.8 235.924C249.248 235.924 249.652 235.84 250.012 235.672C250.372 235.504 250.676 235.248 250.924 234.904C251.18 234.56 251.376 234.128 251.512 233.608C251.648 233.08 251.716 232.46 251.716 231.748C251.716 231.028 251.656 230.42 251.536 229.924C251.424 229.42 251.26 229.012 251.044 228.7C250.828 228.388 250.564 228.16 250.252 228.016C249.948 227.872 249.6 227.8 249.208 227.8C248.592 227.8 248.068 227.932 247.636 228.196C247.204 228.452 246.796 228.816 246.412 229.288V234.808ZM246.256 227.368C246.76 226.8 247.332 226.34 247.972 225.988C248.612 225.636 249.364 225.46 250.228 225.46C250.9 225.46 251.512 225.6 252.064 225.88C252.624 226.16 253.104 226.568 253.504 227.104C253.912 227.632 254.224 228.288 254.44 229.072C254.664 229.848 254.776 230.74 254.776 231.748C254.776 232.668 254.652 233.52 254.404 234.304C254.156 235.088 253.8 235.768 253.336 236.344C252.88 236.92 252.324 237.372 251.668 237.7C251.02 238.02 250.292 238.18 249.484 238.18C248.796 238.18 248.208 238.076 247.72 237.868C247.232 237.652 246.796 237.356 246.412 236.98V242.02H243.448V225.688H245.26C245.644 225.688 245.896 225.868 246.016 226.228L246.256 227.368ZM262.514 225.496C263.426 225.496 264.254 225.644 264.998 225.94C265.75 226.236 266.39 226.656 266.918 227.2C267.454 227.744 267.866 228.408 268.154 229.192C268.442 229.976 268.586 230.852 268.586 231.82C268.586 232.796 268.442 233.676 268.154 234.46C267.866 235.244 267.454 235.912 266.918 236.464C266.39 237.016 265.75 237.44 264.998 237.736C264.254 238.032 263.426 238.18 262.514 238.18C261.594 238.18 260.758 238.032 260.006 237.736C259.254 237.44 258.61 237.016 258.074 236.464C257.546 235.912 257.134 235.244 256.838 234.46C256.55 233.676 256.406 232.796 256.406 231.82C256.406 230.852 256.55 229.976 256.838 229.192C257.134 228.408 257.546 227.744 258.074 227.2C258.61 226.656 259.254 226.236 260.006 225.94C260.758 225.644 261.594 225.496 262.514 225.496ZM262.514 235.9C263.538 235.9 264.294 235.556 264.782 234.868C265.278 234.18 265.526 233.172 265.526 231.844C265.526 230.516 265.278 229.504 264.782 228.808C264.294 228.112 263.538 227.764 262.514 227.764C261.474 227.764 260.702 228.116 260.198 228.82C259.702 229.516 259.454 230.524 259.454 231.844C259.454 233.164 259.702 234.172 260.198 234.868C260.702 235.556 261.474 235.9 262.514 235.9ZM278.703 235.888V227.956H275.679C275.599 228.988 275.499 229.92 275.379 230.752C275.259 231.576 275.119 232.312 274.959 232.96C274.799 233.608 274.623 234.172 274.431 234.652C274.247 235.132 274.047 235.544 273.831 235.888H278.703ZM283.839 235.804V241.24C283.839 241.512 283.759 241.728 283.599 241.888C283.447 242.048 283.247 242.128 282.999 242.128H281.151V238H271.935V241.288C271.935 241.496 271.867 241.688 271.731 241.864C271.603 242.04 271.399 242.128 271.119 242.128H269.247V235.888H269.595C269.875 235.888 270.147 235.852 270.411 235.78C270.675 235.7 270.927 235.54 271.167 235.3C271.415 235.06 271.647 234.716 271.863 234.268C272.087 233.812 272.287 233.208 272.463 232.456C272.639 231.696 272.791 230.764 272.919 229.66C273.055 228.556 273.163 227.232 273.243 225.688H281.583V235.804H283.839ZM292.21 232.744C291.354 232.784 290.634 232.86 290.05 232.972C289.466 233.076 288.998 233.212 288.646 233.38C288.294 233.548 288.042 233.744 287.89 233.968C287.738 234.192 287.662 234.436 287.662 234.7C287.662 235.22 287.814 235.592 288.118 235.816C288.43 236.04 288.834 236.152 289.33 236.152C289.938 236.152 290.462 236.044 290.902 235.828C291.35 235.604 291.786 235.268 292.21 234.82V232.744ZM285.418 227.404C286.834 226.108 288.538 225.46 290.53 225.46C291.25 225.46 291.894 225.58 292.462 225.82C293.03 226.052 293.51 226.38 293.902 226.804C294.294 227.22 294.59 227.72 294.79 228.304C294.998 228.888 295.102 229.528 295.102 230.224V238H293.758C293.478 238 293.262 237.96 293.11 237.88C292.958 237.792 292.838 237.62 292.75 237.364L292.486 236.476C292.174 236.756 291.87 237.004 291.574 237.22C291.278 237.428 290.97 237.604 290.65 237.748C290.33 237.892 289.986 238 289.618 238.072C289.258 238.152 288.858 238.192 288.418 238.192C287.898 238.192 287.418 238.124 286.978 237.988C286.538 237.844 286.158 237.632 285.838 237.352C285.518 237.072 285.27 236.724 285.094 236.308C284.918 235.892 284.83 235.408 284.83 234.856C284.83 234.544 284.882 234.236 284.986 233.932C285.09 233.62 285.258 233.324 285.49 233.044C285.73 232.764 286.038 232.5 286.414 232.252C286.79 232.004 287.25 231.788 287.794 231.604C288.346 231.42 288.986 231.272 289.714 231.16C290.442 231.04 291.274 230.968 292.21 230.944V230.224C292.21 229.4 292.034 228.792 291.682 228.4C291.33 228 290.822 227.8 290.158 227.8C289.678 227.8 289.278 227.856 288.958 227.968C288.646 228.08 288.37 228.208 288.13 228.352C287.89 228.488 287.67 228.612 287.47 228.724C287.278 228.836 287.062 228.892 286.822 228.892C286.614 228.892 286.438 228.84 286.294 228.736C286.15 228.624 286.034 228.496 285.946 228.352L285.418 227.404ZM315.858 238H313.806C313.278 238 312.878 237.92 312.606 237.76C312.334 237.6 312.118 237.34 311.958 236.98L310.134 233.572C309.982 233.276 309.778 233.056 309.522 232.912C309.274 232.768 308.982 232.696 308.646 232.696H307.674V238H304.806V232.696H303.822C303.494 232.696 303.202 232.768 302.946 232.912C302.69 233.056 302.486 233.276 302.334 233.572L300.51 236.98C300.35 237.34 300.134 237.6 299.862 237.76C299.59 237.92 299.19 238 298.662 238H296.622L299.502 232.924C299.702 232.564 299.93 232.268 300.186 232.036C300.442 231.796 300.77 231.612 301.17 231.484C300.874 231.38 300.622 231.232 300.414 231.04C300.206 230.84 300.006 230.58 299.814 230.26L296.934 225.688H299.274C299.546 225.688 299.794 225.76 300.018 225.904C300.25 226.04 300.43 226.228 300.558 226.468L302.646 230.008C302.798 230.264 302.974 230.456 303.174 230.584C303.382 230.704 303.654 230.764 303.99 230.764H304.806V225.688H307.674V230.764H308.43C308.766 230.764 309.042 230.704 309.258 230.584C309.482 230.456 309.67 230.264 309.822 230.008L311.91 226.468C312.038 226.228 312.214 226.04 312.438 225.904C312.67 225.76 312.926 225.688 313.206 225.688H315.534L312.654 230.26C312.462 230.58 312.262 230.84 312.054 231.04C311.846 231.232 311.594 231.38 311.298 231.484C311.698 231.612 312.026 231.796 312.282 232.036C312.538 232.268 312.766 232.564 312.966 232.924L315.858 238Z" fill="#333333"/>
<defs>
<filter id="filter0_di" x="0" y="0.169922" width="305" height="581.66" filterUnits="userSpaceOnUse" color-interpolation-filters="sRGB">
<feFlood flood-opacity="0" result="BackgroundImageFix"/>
<feColorMatrix in="SourceAlpha" type="matrix" values="0 0 0 0 0 0 0 0 0 0 0 0 0 0 0 0 0 0 127 0"/>
<feOffset dy="15"/>
<feGaussianBlur stdDeviation="12.5"/>
<feColorMatrix type="matrix" values="0 0 0 0 0 0 0 0 0 0 0 0 0 0 0 0 0 0 0.7 0"/>
<feBlend mode="overlay" in2="BackgroundImageFix" result="effect1_dropShadow"/>
<feBlend mode="normal" in="SourceGraphic" in2="effect1_dropShadow" result="shape"/>
<feColorMatrix in="SourceAlpha" type="matrix" values="0 0 0 0 0 0 0 0 0 0 0 0 0 0 0 0 0 0 127 0" result="hardAlpha"/>
<feOffset dy="-1"/>
<feGaussianBlur stdDeviation="1.5"/>
<feComposite in2="hardAlpha" operator="arithmetic" k2="-1" k3="1"/>
<feColorMatrix type="matrix" values="0 0 0 0 0 0 0 0 0 0 0 0 0 0 0 0 0 0 0.1 0"/>
<feBlend mode="normal" in2="shape" result="effect2_innerShadow"/>
</filter>
<clipPath id="clip0">
<rect width="135.402" height="67.7011" fill="white" transform="translate(85 337)"/>
</clipPath>
</defs>
</svg>
