<svg width="14" height="14" viewBox="0 0 14 14" fill="none" xmlns="http://www.w3.org/2000/svg">
<path d="M8.4105 7.00055L13.7005 1.71055C14.0905 1.32055 14.0905 0.690557 13.7005 0.300557C13.3105 -0.0894433 12.6805 -0.0894433 12.2905 0.300557L7.0005 5.59055L1.7105 0.300557C1.3205 -0.0894433 0.690496 -0.0894433 0.300496 0.300557C-0.0895044 0.690557 -0.0895044 1.32055 0.300496 1.71055L5.5905 7.00055L0.300496 12.2905C-0.0895044 12.6805 -0.0895044 13.3105 0.300496 13.7005C0.690496 14.0905 1.3205 14.0905 1.7105 13.7005L7.0005 8.41056L12.2905 13.7005C12.6805 14.0905 13.3105 14.0905 13.7005 13.7005C14.0905 13.3105 14.0905 12.6805 13.7005 12.2905L8.4105 7.00055Z" fill="#4F4F4F"/>
</svg>
