<svg width="18" height="18" viewBox="0 0 18 18" fill="none" xmlns="http://www.w3.org/2000/svg">
<path d="M3.81605 16.9288C3.53705 16.7308 3.40204 16.3888 3.45604 16.0468L4.26605 11.2768L1.13404 7.85682C0.90904 7.61382 0.837047 7.26282 0.945047 6.94782C1.05305 6.63282 1.33205 6.40782 1.66505 6.36282L6.07505 5.71482L8.20804 1.40382C8.51404 0.791824 9.52205 0.791824 9.81905 1.40382L11.952 5.71482L16.326 6.35382C16.659 6.39882 16.929 6.62382 17.046 6.93882C17.154 7.25382 17.091 7.60482 16.866 7.84782L13.761 11.2678L14.571 16.0468C14.625 16.3888 14.49 16.7218 14.211 16.9288C13.932 17.1268 13.5721 17.1538 13.266 17.0008L9.00904 14.7688L4.75204 17.0008C4.45504 17.1628 4.08605 17.1268 3.81605 16.9288ZM9.01805 12.8428C9.16205 12.8428 9.30604 12.8788 9.43204 12.9418L12.492 14.5528L11.907 11.1418C11.862 10.8718 11.943 10.5928 12.123 10.3858L14.382 7.89282L11.205 7.42482C10.908 7.37982 10.656 7.19982 10.53 6.92982L9.00004 3.82482L7.47005 6.92982C7.33505 7.19082 7.08305 7.37982 6.79505 7.42482L3.60004 7.89282L5.88604 10.3858C6.07504 10.5928 6.15604 10.8718 6.11104 11.1418L5.52604 14.5528L8.58604 12.9418C8.73004 12.8788 8.87405 12.8428 9.01805 12.8428Z" fill="white"/>
</svg>
