<svg width="19" height="19" viewBox="0 0 19 19" fill="none" xmlns="http://www.w3.org/2000/svg">
<path fill-rule="evenodd" clip-rule="evenodd" d="M9.00065 0C4.02974 0 0 4.02974 0 9.00065C0 13.9715 4.02973 18.0013 9.00065 18.0013C13.9715 18.0013 18.0013 13.9715 18.0013 9.00065C18.0013 4.02973 13.9715 0 9.00065 0ZM2 9.00065C2 5.13431 5.13431 2 9.00065 2C12.867 2 16.0013 5.13431 16.0013 9.00065C16.0013 12.867 12.867 16.0013 9.00065 16.0013C5.13431 16.0013 2 12.867 2 9.00065ZM5.09668 8.00102C4.5444 8.00102 4.09668 8.44873 4.09668 9.00102C4.09668 9.5533 4.5444 10.001 5.09668 10.001H12.905C13.4572 10.001 13.905 9.5533 13.905 9.00102C13.905 8.44873 13.4572 8.00102 12.905 8.00102H5.09668Z" fill="#FF7A00"/>
</svg>
