<svg width="18" height="18" viewBox="0 0 18 18" fill="none" xmlns="http://www.w3.org/2000/svg">
<path fill-rule="evenodd" clip-rule="evenodd" d="M18 9C18 13.9705 13.9705 18 9 18C4.02944 18 0 13.9705 0 9C0 4.02944 4.02944 0 9 0C13.9705 0 18 4.02944 18 9ZM13.1118 6.28183C13.4297 5.83017 13.3212 5.20637 12.8695 4.88853C12.4179 4.57069 11.7941 4.67918 11.4762 5.13084L7.53107 10.7371L6.05393 9.23264C5.667 8.83855 5.03386 8.83275 4.63977 9.21968C4.24569 9.6066 4.23988 10.2397 4.62681 10.6338L6.9447 12.9946C7.15263 13.2064 7.44388 13.3149 7.73968 13.2907C8.03548 13.2665 8.30527 13.1122 8.47606 12.8695L13.1118 6.28183Z" fill="#5BC03E"/>
</svg>
