<svg width="118" height="64" viewBox="0 0 118 64" fill="none" xmlns="http://www.w3.org/2000/svg">
<path d="M0 25.2223V0.198242H12.8039V1.65798H1.66826V10.8752H11.8447V12.3349H1.66826V25.264H0V25.2223Z" fill="white"/>
<path d="M18.9765 25.2234V2.49316H29.57V3.86949H20.5614V12.1274H28.6524V13.5038H20.5614V23.7219H29.9036V25.1817H18.9765V25.2234Z" fill="white"/>
<path d="M46.8782 24.0544H45.919L39.3293 7.99732C39.0374 7.37172 38.7871 6.62099 38.4952 5.78686C38.4952 5.78686 38.4952 5.91198 38.4118 6.20393C38.3284 6.41246 38.3284 6.74611 38.2866 7.16318C38.2032 7.58025 38.2032 7.83049 38.1615 8.12244L35.534 25.3056H33.9492L37.661 2.40861H38.6203L45.7104 19.1747C46.2526 20.5511 46.5446 21.3018 46.5446 21.3852C46.6697 20.8847 47.045 20.134 47.5038 19.1747L55.4281 2.3252H56.3873L59.8073 25.2222H58.139L55.6783 7.95561C55.5532 6.78782 55.3864 6.0371 55.3864 5.70345L54.3437 8.03902L46.8782 24.0544Z" fill="white"/>
<path d="M65.8547 25.2234V2.49316H67.4395V25.2651L65.8547 25.2234Z" fill="white"/>
<path d="M82.4123 2.2832C85.9156 2.2832 88.8768 3.36758 91.2124 5.49462C93.5479 7.62167 94.7157 10.5828 94.7157 14.2947C94.7157 18.0066 93.6314 20.8427 91.5043 22.6778C89.3773 24.5546 86.5412 25.5139 83.1213 25.5139C80.7857 25.5139 78.325 25.3887 75.8226 25.1802V2.49174C77.6994 2.32491 79.8682 2.2832 82.4123 2.2832ZM83.1213 24.0541C86.0825 24.0541 88.5014 23.22 90.3365 21.6351C92.1299 20.0503 93.0892 17.5896 93.0892 14.3364C93.0892 11.125 92.0465 8.49751 90.0029 6.579C87.9593 4.66049 85.4569 3.70123 82.454 3.70123C80.3269 3.70123 78.6587 3.78465 77.5743 3.82635V23.7622C78.9089 24.0124 80.7857 24.0541 83.1213 24.0541Z" fill="white"/>
<path d="M102.431 17.3809L99.22 25.3052H97.5518L107.103 2.4082H108.062L117.696 25.3052H115.903L112.608 17.3809H102.431ZM107.436 4.95231C107.103 5.99498 106.769 6.87083 106.477 7.57984L102.974 15.9629H111.899L108.479 7.57984C107.978 6.32864 107.603 5.45279 107.436 4.95231Z" fill="white"/>
<path d="M9.3006 63.4674V38.4434H22.1045V39.9031H10.9272V49.1203H21.1036V50.58H10.9272V63.5091H9.3006V63.4674Z" fill="white"/>
<path d="M37.8279 63.8011C34.6165 63.8011 31.8639 62.7167 29.6534 60.4229C27.443 58.1707 26.3586 55.418 26.3586 52.1232C26.3586 48.8284 27.443 46.0757 29.6534 43.8236C31.8639 41.5714 34.6165 40.4453 37.8279 40.4453C41.0393 40.4453 43.7919 41.5297 46.0024 43.8236C48.2128 46.0757 49.2972 48.8284 49.2972 52.1232C49.2972 55.418 48.2128 58.1707 46.0024 60.4229C43.7085 62.7167 41.0393 63.8011 37.8279 63.8011ZM37.8279 41.7799C34.9918 41.7799 32.6563 42.7392 30.8212 44.7411C28.9444 46.743 28.0686 49.1203 28.0686 52.0398C28.0686 54.9593 28.9444 57.3365 30.8212 59.3385C32.698 61.3404 35.0336 62.2997 37.8279 62.2997C40.6222 62.2997 42.9995 61.3404 44.8346 59.3385C46.7114 57.3365 47.5872 54.9593 47.5872 52.0398C47.5872 49.1203 46.7114 46.743 44.8346 44.7411C42.9578 42.8226 40.6222 41.7799 37.8279 41.7799Z" fill="white"/>
<path d="M56.2206 63.468V40.8212C58.2225 40.6961 59.9325 40.5293 61.3088 40.5293C63.4358 40.5293 65.2292 41.0715 66.6055 42.1976C67.9818 43.2819 68.7326 44.8668 68.7326 46.9521C68.7326 48.3285 68.3155 49.6214 67.5648 50.7891C66.7306 51.9569 65.8548 52.9162 64.8956 53.6252C67.6482 57.3371 69.3582 59.5476 70.0672 60.2149C71.3601 61.5912 72.8198 62.3419 74.4047 62.5504L74.3212 63.6348C73.0283 63.6348 71.9857 63.4263 71.1515 63.0926C70.3174 62.759 69.4833 62.1334 68.7326 61.2158C67.8984 60.34 66.1885 58.0461 63.4358 54.2925C61.5173 54.2925 59.6405 54.2091 57.8471 54.084V63.4263L56.2206 63.468ZM62.56 52.9996C63.4358 52.9996 64.4785 52.374 65.5212 51.2062C66.5638 49.955 67.106 48.5787 67.106 46.9521C67.106 45.3673 66.5638 44.1161 65.4377 43.2402C64.3534 42.4061 62.8936 41.989 61.1837 41.989C60.2244 41.989 59.14 42.0724 57.8888 42.1142V52.7494C59.5154 52.9162 61.1003 52.9996 62.56 52.9996Z" fill="white"/>
<path d="M94.382 62.3412C92.6721 63.3005 90.1697 63.8009 87.0834 63.8009C83.9971 63.8009 81.2445 62.7166 78.8255 60.4227C76.4065 58.1288 75.2387 55.4179 75.2387 52.0396C75.2387 48.7448 76.2814 45.9087 78.325 43.6566C80.3686 41.4044 83.0795 40.2783 86.291 40.2783C88.9185 40.2783 91.5043 40.6954 94.0484 41.5295L93.6313 42.8224C91.2123 42.0717 88.6682 41.7381 86.0824 41.7381C83.4966 41.7381 81.3279 42.6973 79.5345 44.6992C77.7411 46.7012 76.907 49.0784 76.907 51.9979C76.907 54.9174 77.9496 57.2947 79.9933 59.2966C82.0369 61.2985 84.3725 62.3412 87.0834 62.3412C89.7526 62.3412 92.0465 62.0075 93.7564 61.2568L94.382 62.3412Z" fill="white"/>
<path d="M100.138 63.4682V40.6963H110.731V42.0726H101.722V50.3306H109.813V51.7069H101.722V61.9667H111.065V63.4265H100.138V63.4682Z" fill="white"/>
</svg>
