<svg width="88" height="44" viewBox="0 0 88 44" fill="none" xmlns="http://www.w3.org/2000/svg">
<path d="M0 19.706V11.2363H4.31703V11.7304H0.56248V14.8501H3.99361V15.3441H0.56248V19.7201H0V19.706Z" fill="#333333"/>
<path d="M6.39819 19.706V12.0127H9.96994V12.4785H6.93255V15.2735H9.66058V15.7394H6.93255V19.1978H10.0824V19.6919H6.39819V19.706Z" fill="#333333"/>
<path d="M15.8056 19.3108H15.4822L13.2604 13.8761C13.162 13.6644 13.0776 13.4103 12.9792 13.1279C12.9792 13.1279 12.9792 13.1703 12.951 13.2691C12.9229 13.3397 12.9229 13.4526 12.9089 13.5938C12.8807 13.7349 12.8807 13.8196 12.8667 13.9184L11.9808 19.7343H11.4464L12.6979 11.9845H13.0214L15.4119 17.6592C15.5947 18.1251 15.6931 18.3791 15.6931 18.4074C15.7353 18.238 15.8619 17.9839 16.0166 17.6592L18.6883 11.9563H19.0118L20.1649 19.7061H19.6024L18.7727 13.862C18.7305 13.4667 18.6743 13.2126 18.6743 13.0997L18.3227 13.8902L15.8056 19.3108Z" fill="#333333"/>
<path d="M22.2039 19.706V12.0127H22.7382V19.7201L22.2039 19.706Z" fill="#333333"/>
<path d="M27.7865 11.9421C28.9677 11.9421 29.9661 12.3092 30.7536 13.0291C31.541 13.749 31.9348 14.7512 31.9348 16.0076C31.9348 17.2639 31.5692 18.2238 30.852 18.8449C30.1348 19.4802 29.1786 19.8048 28.0255 19.8048C27.2381 19.8048 26.4084 19.7625 25.5647 19.6919V12.0127C26.1975 11.9563 26.9287 11.9421 27.7865 11.9421ZM28.0255 19.3108C29.024 19.3108 29.8395 19.0284 30.4583 18.492C31.0629 17.9556 31.3864 17.1228 31.3864 16.0217C31.3864 14.9348 31.0348 14.0454 30.3458 13.3961C29.6567 12.7468 28.813 12.4221 27.8006 12.4221C27.0834 12.4221 26.5209 12.4503 26.1553 12.4644V19.2119C26.6053 19.2966 27.2381 19.3108 28.0255 19.3108Z" fill="#333333"/>
<path d="M34.5362 17.0521L33.4535 19.7341H32.891L36.1112 11.9844H36.4346L39.6829 19.7341H39.0783L37.9674 17.0521H34.5362ZM36.2237 12.8455C36.1112 13.1984 35.9987 13.4948 35.9003 13.7348L34.7191 16.5721H37.7283L36.5752 13.7348C36.4065 13.3113 36.2799 13.0149 36.2237 12.8455Z" fill="#333333"/>
<path d="M3.13586 32.6506V24.1809H7.4529V24.675H3.68428V27.7946H7.11541V28.2887H3.68428V32.6647H3.13586V32.6506Z" fill="#333333"/>
<path d="M12.7543 32.7634C11.6715 32.7634 10.7434 32.3964 9.9981 31.62C9.25282 30.8578 8.88721 29.9261 8.88721 28.8109C8.88721 27.6957 9.25282 26.7641 9.9981 26.0018C10.7434 25.2395 11.6715 24.8584 12.7543 24.8584C13.837 24.8584 14.7651 25.2254 15.5104 26.0018C16.2557 26.7641 16.6213 27.6957 16.6213 28.8109C16.6213 29.9261 16.2557 30.8578 15.5104 31.62C14.737 32.3964 13.837 32.7634 12.7543 32.7634ZM12.7543 25.3101C11.798 25.3101 11.0106 25.6348 10.3918 26.3124C9.75905 26.9899 9.46375 27.7946 9.46375 28.7827C9.46375 29.7708 9.75905 30.5754 10.3918 31.253C11.0246 31.9306 11.8121 32.2553 12.7543 32.2553C13.6964 32.2553 14.4979 31.9306 15.1167 31.253C15.7495 30.5754 16.0448 29.7708 16.0448 28.7827C16.0448 27.7946 15.7495 26.9899 15.1167 26.3124C14.4839 25.663 13.6964 25.3101 12.7543 25.3101Z" fill="#333333"/>
<path d="M18.9556 32.6506V24.9855C19.6305 24.9432 20.2071 24.8867 20.6711 24.8867C21.3883 24.8867 21.993 25.0702 22.457 25.4514C22.921 25.8184 23.1742 26.3548 23.1742 27.0606C23.1742 27.5264 23.0335 27.964 22.7804 28.3593C22.4992 28.7545 22.2039 29.0792 21.8805 29.3192C22.8086 30.5755 23.3851 31.3237 23.6241 31.5495C24.0601 32.0154 24.5522 32.2695 25.0866 32.34L25.0585 32.7071C24.6226 32.7071 24.271 32.6365 23.9898 32.5235C23.7085 32.4106 23.4273 32.1989 23.1742 31.8883C22.8929 31.5919 22.3164 30.8155 21.3883 29.545C20.7414 29.545 20.1086 29.5168 19.504 29.4745V32.6365L18.9556 32.6506ZM21.093 29.1074C21.3883 29.1074 21.7398 28.8957 22.0914 28.5004C22.4429 28.077 22.6257 27.6111 22.6257 27.0606C22.6257 26.5242 22.4429 26.1007 22.0633 25.8043C21.6977 25.5219 21.2055 25.3808 20.6289 25.3808C20.3055 25.3808 19.9399 25.409 19.518 25.4231V29.0227C20.0665 29.0792 20.6008 29.1074 21.093 29.1074Z" fill="#333333"/>
<path d="M31.8223 32.2694C31.2457 32.5941 30.402 32.7635 29.3614 32.7635C28.3208 32.7635 27.3927 32.3965 26.5771 31.6201C25.7615 30.8437 25.3678 29.9262 25.3678 28.7828C25.3678 27.6676 25.7193 26.7077 26.4084 25.9454C27.0974 25.1831 28.0115 24.802 29.0942 24.802C29.9801 24.802 30.852 24.9432 31.7098 25.2255L31.5691 25.6631C30.7535 25.409 29.8958 25.2961 29.0239 25.2961C28.1521 25.2961 27.4209 25.6207 26.8162 26.2983C26.2115 26.9759 25.9303 27.7805 25.9303 28.7686C25.9303 29.7568 26.2818 30.5614 26.9709 31.239C27.6599 31.9165 28.4474 32.2694 29.3614 32.2694C30.2614 32.2694 31.0348 32.1565 31.6113 31.9024L31.8223 32.2694Z" fill="#333333"/>
<path d="M33.7628 32.6505V24.9431H37.3346V25.4089H34.2972V28.2039H37.0252V28.6698H34.2972V32.1423H37.4471V32.6364H33.7628V32.6505Z" fill="#333333"/>
<path d="M86.3688 44H46.1515C45.2515 44 44.5203 43.266 44.5203 42.3625V1.63747C44.5203 0.734039 45.2515 0 46.1515 0H86.3688C87.2687 0 88 0.734039 88 1.63747V42.3625C88 43.266 87.2547 44 86.3688 44Z" fill="#F84841"/>
<path d="M69.7053 35.4597C69.635 35.2197 69.5506 34.9797 69.5225 34.7397C69.4381 33.6952 69.5928 32.6788 69.8881 31.6765C69.9162 31.5495 70.0146 31.4366 70.1131 31.366C71.2521 30.4343 72.4052 29.5168 73.5583 28.5851C74.4301 27.8793 75.4004 27.2864 76.1035 26.383C76.666 25.6772 77.1441 24.9008 77.3269 23.9974C77.4113 23.588 77.4253 23.1504 77.2706 22.7128C77.1722 23.0657 77.0878 23.4186 76.9613 23.7715C76.666 24.6044 76.1316 25.2819 75.5691 25.9313C74.866 26.75 73.9661 27.3429 73.0942 27.9499C71.7021 28.9239 70.3099 29.8979 68.8616 30.8013C67.2444 31.8036 65.8945 33.1023 64.6851 34.5421C63.5602 35.8549 62.5899 37.2806 61.8727 38.8617C61.8446 38.9322 61.7321 39.0452 61.704 39.0452C61.6056 39.0169 61.4931 38.9464 61.465 38.8617C61.1556 38.1841 60.804 37.5065 60.5369 36.8148C60.0306 35.5161 59.8197 34.1469 59.8338 32.7635C59.8619 31.3801 60.1431 30.025 60.8743 28.8392C61.2681 28.1616 61.8165 27.5405 62.4212 27.0465C63.4899 26.1148 64.643 25.2819 65.7679 24.4067C66.007 24.2232 66.246 24.0115 66.5132 23.8421C66.5976 23.7715 66.7241 23.715 66.8366 23.7009C66.6116 24.7032 66.0773 25.5643 65.6836 26.4959C65.7117 26.51 65.7398 26.5524 65.7679 26.5665C65.9789 26.3971 66.2038 26.2418 66.3867 26.0442C67.4554 24.9996 68.1585 23.7574 68.6647 22.374C69.1006 21.16 69.3537 19.9178 69.1428 18.6191C68.9178 17.264 68.4678 16.0076 67.7788 14.836C67.4132 14.2149 66.9632 13.622 66.5554 13.015C66.5273 12.9585 66.457 12.9162 66.3445 12.9162C66.4148 13.0856 66.471 13.2691 66.5273 13.4385C67.0616 14.8925 67.3569 16.3747 67.1882 17.9415C67.1179 18.605 66.8226 19.1696 66.3726 19.6778C65.9085 20.2001 65.3742 20.2848 64.6851 19.9037C64.207 19.6214 63.7711 19.2826 63.3211 18.9297C62.5477 18.365 61.8024 17.7157 60.9025 17.3628C60.8462 17.3487 60.7759 17.3345 60.6775 17.3487C60.7619 17.4475 60.8322 17.5745 60.9165 17.6592C61.6196 18.365 62.1962 19.1979 62.5899 20.1154C63.1243 21.3435 63.293 22.6281 62.8993 23.9409C62.8008 24.3079 62.5899 24.6326 62.4212 24.9573C62.2946 25.1972 62.0977 25.3102 61.8024 25.2537C61.0572 25.1125 60.34 25.1267 59.5947 25.2537C58.8072 25.3807 58.0901 25.649 57.401 26.0724C56.5573 26.5947 56.023 27.357 55.6292 28.2322C55.4605 28.6133 55.3761 28.6416 55.0808 28.331C54.3355 27.5546 53.759 26.7077 53.4637 25.6631C53.4496 25.6066 53.4074 25.536 53.3934 25.4937C53.3652 25.4937 53.3231 25.4937 53.2949 25.5078C53.309 25.8325 53.3231 26.1712 53.3512 26.4959C53.3512 26.5806 53.4074 26.6653 53.4074 26.75C53.4074 26.8065 53.3934 26.8912 53.3512 26.9194C53.3371 26.9335 53.2527 26.9194 53.1965 26.8912C52.5778 26.4112 52.0012 25.8889 51.9731 25.042C51.959 24.7314 52.0434 24.4208 52.1278 24.1244C52.4512 23.0516 52.9996 22.1199 53.759 21.3012C53.9277 21.1177 54.1105 21.1177 54.3074 21.2447C55.0527 21.767 55.812 22.247 56.5433 22.7834C57.0214 23.108 57.4854 23.4892 57.9495 23.8421C58.0198 23.8986 58.0901 23.9409 58.1604 23.9974C58.3713 24.1244 58.4557 24.0679 58.4416 23.8421C58.4135 23.1786 58.0901 22.6704 57.4995 22.3881C56.9089 22.134 56.3042 21.9082 55.7277 21.64C54.9683 21.3153 54.2933 20.8212 53.9558 20.0448C53.7871 19.6637 53.6746 19.2261 53.6465 18.8167C53.6184 18.4074 53.998 18.1956 54.3074 18.0404C54.7152 17.8145 55.1511 17.6451 55.6152 17.4334C55.5448 17.3487 55.4745 17.2781 55.4042 17.1934C55.2214 16.9816 55.2214 16.8123 55.4886 16.7134C55.7839 16.5864 56.1073 16.544 56.4167 16.4593C56.5151 16.4452 56.5995 16.4311 56.712 16.4029C56.7261 16.3747 56.7261 16.3323 56.7401 16.3041C56.5292 16.2194 56.3464 16.0782 56.1355 16.05C55.4183 15.8947 54.673 15.8947 53.984 16.1206C53.4215 16.3041 52.9715 16.1206 52.4793 15.9653C52.4512 15.9512 52.395 15.7535 52.4231 15.7112C52.5215 15.5841 52.6481 15.4853 52.7887 15.4006C53.8715 14.6384 54.9542 13.8902 56.0651 13.1279C56.1355 13.0997 56.2058 13.0574 56.2479 13.0291C56.2198 12.9727 56.1917 12.9444 56.1636 12.888C55.9526 12.9444 55.7277 13.015 55.5308 13.0574C55.4464 13.0715 55.362 13.0715 55.2777 13.0715C55.2777 12.9727 55.2636 12.8597 55.3058 12.775C55.587 12.2386 55.9948 11.7869 56.5151 11.5187C57.2042 11.1376 57.2604 10.587 57.1339 9.92358C57.0776 9.62714 57.0073 9.35893 56.9651 9.06249C56.951 8.96368 56.9651 8.85075 56.9651 8.73782C56.9792 8.72371 57.0214 8.70959 57.0354 8.68136C57.2745 8.96368 57.5417 9.23189 57.851 9.59891C57.8791 9.38716 57.9213 9.246 57.9213 9.11896C57.9916 8.49785 58.0198 7.87674 58.1041 7.25563C58.1323 6.95919 58.2869 6.73333 58.5682 6.57805C59.8619 5.85813 61.1556 5.10997 62.4634 4.41828C63.0961 4.06538 63.7571 3.74071 64.5164 3.85364C64.9945 3.92422 65.4867 4.09361 65.9648 4.23477C66.0492 4.24889 66.1195 4.36182 66.246 4.46063C65.6132 4.68649 64.9523 4.77119 64.4883 5.2229C64.4883 5.25114 64.5023 5.27937 64.5023 5.3076C64.6008 5.29348 64.7273 5.29348 64.8258 5.25114C65.9085 4.88412 67.0194 4.63003 68.1444 4.54533C68.4256 4.53121 68.7491 4.54533 69.0022 4.64414C70.3662 5.18056 71.7302 5.7452 73.0802 6.28161C73.8536 6.59217 74.627 6.90272 75.4285 7.15681C76.0894 7.36856 76.4691 7.82027 76.7503 8.35669C77.3831 9.52833 78.0581 10.6858 78.6347 11.8998C79.0425 12.7609 79.3096 13.7208 79.6049 14.6384C79.6893 14.9348 79.6752 15.2595 79.7034 15.57C79.6471 15.5841 79.619 15.5983 79.5627 15.6265C79.4643 15.4712 79.3378 15.3301 79.2393 15.1748C78.7331 14.3984 78.255 13.6079 77.7347 12.8174C77.6362 12.6621 77.4956 12.5351 77.3691 12.408C77.341 12.4221 77.3128 12.4362 77.2847 12.4645C77.3128 12.5915 77.355 12.7186 77.4253 12.8456C78.1284 14.3984 78.8737 15.9371 79.5627 17.5039C80.0127 18.5485 80.4205 19.579 80.8002 20.6518C81.0111 21.2447 80.983 21.8799 80.9408 22.5152C80.7861 24.2091 80.1112 25.6772 79.0987 26.99C77.9456 28.4722 76.5957 29.7709 75.0348 30.8437C73.9379 31.606 72.8411 32.3965 71.7724 33.2293C71.0974 33.7516 70.549 34.3868 70.1131 35.135C70.0287 35.2762 69.9443 35.3891 69.86 35.5302C69.7897 35.4597 69.7615 35.4597 69.7053 35.4597ZM66.0351 9.47186C66.021 9.50009 66.021 9.54244 66.007 9.57067C66.1476 9.66949 66.2882 9.75418 66.4007 9.86711C67.2304 10.6153 68.0882 11.3352 68.8756 12.1116C69.4662 12.7045 70.0287 13.3114 70.5068 13.9749C71.449 15.3018 72.0396 16.7981 72.3208 18.4215C72.6864 20.6377 72.2646 22.6563 70.999 24.5055C70.9427 24.5761 70.8724 24.6326 70.8162 24.6891C70.7881 24.6891 70.7599 24.6749 70.7318 24.6749C70.7177 24.5479 70.7037 24.435 70.7177 24.2938C70.774 23.2069 70.7177 22.1199 70.3943 21.0612C70.3662 20.9765 70.3099 20.8918 70.2537 20.8071C70.2256 20.8071 70.1834 20.8212 70.1553 20.8212C70.085 23.6021 69.3115 26.1854 68.0319 28.6557C68.285 28.5286 68.51 28.4016 68.7209 28.2463C70.0146 27.1876 71.0693 25.9313 71.9271 24.5055C72.6021 23.3763 73.0802 22.1905 73.2489 20.8777C73.3895 19.8613 73.4177 18.8309 73.3192 17.8145C73.3052 17.6733 73.3333 17.5322 73.3473 17.4051C73.3755 17.4051 73.4176 17.4051 73.4458 17.4051C74.0364 18.478 74.2051 19.6496 74.4161 20.8495C74.4723 20.8212 74.5004 20.7789 74.5004 20.7507C74.5145 20.6801 74.5145 20.5954 74.5285 20.5248C74.627 19.0567 74.4582 17.6169 73.8254 16.29C73.6145 15.8524 73.5301 15.5136 73.952 15.1889C73.9801 15.1748 73.9801 15.1183 74.0083 15.0901C74.7114 13.8761 74.9785 12.5492 74.7676 11.1658C74.6129 10.1636 74.3036 9.86711 73.3052 9.92358C72.2646 9.98004 71.224 9.99416 70.1834 9.99416C68.9459 9.99416 67.7225 9.7683 66.4991 9.54244C66.3304 9.48598 66.1757 9.48598 66.0351 9.47186ZM58.99 12.8738C58.976 12.888 58.9619 12.9303 58.9338 12.9444C58.99 13.1138 59.0322 13.2973 59.0885 13.4667C59.1447 13.6361 59.1447 13.7773 58.9619 13.9184C58.6104 14.1584 58.2729 14.4266 57.9213 14.6666C57.8651 14.7231 57.8229 14.7936 57.7385 14.9066C57.8932 14.8925 57.9635 14.8925 58.0338 14.8783C58.4416 14.7795 58.8635 14.6384 59.2853 14.5254C60.1994 14.3419 61.1134 14.1443 62.0415 13.989C62.4915 13.9184 62.9555 13.9184 63.4196 13.8902C63.5743 13.8761 63.7711 13.8196 63.6305 13.6361C63.2227 13.0715 62.7868 12.4645 62.0415 12.3516C61.3243 12.2527 60.579 12.2104 59.8478 12.1822C59.44 12.168 59.4119 12.2104 59.3838 12.6339C59.3697 12.8597 59.3416 13.0432 58.99 12.8738ZM61.254 9.58479C61.4087 9.58479 61.5353 9.59891 61.6337 9.58479C62.3368 9.51421 63.068 9.44363 63.7711 9.34481C64.0524 9.31658 64.3336 9.20365 64.6008 9.09072C65.0508 8.86487 65.4726 8.61078 65.9085 8.34257C66.007 8.27199 66.1195 8.20141 66.2038 8.13083C66.1898 8.11671 66.1898 8.07436 66.1757 8.06025C66.0773 8.07436 65.9929 8.08848 65.8804 8.13083C65.5992 8.22964 65.3461 8.3708 65.0508 8.42727C64.0102 8.66724 62.9696 8.87898 61.929 9.10484C61.6478 9.17542 61.3665 9.20365 61.254 9.58479ZM62.0134 7.17093C61.9852 7.1427 61.9571 7.11447 61.929 7.08623C60.79 7.91909 59.8056 8.90722 58.9479 10.0647C59.2572 10.0506 59.5525 9.99416 59.8197 9.90946C59.9181 9.88123 60.0025 9.78242 60.0588 9.69772C60.4665 9.14719 60.8462 8.56843 61.2681 8.0179C61.5071 7.72146 61.7603 7.43914 62.0134 7.17093Z" fill="white"/>
<path d="M59.7634 29.192C59.7353 29.2767 59.7072 29.3756 59.6791 29.4744C59.0885 30.9848 59.0041 32.5235 59.2291 34.0903C59.2853 34.415 59.3697 34.7538 59.4119 35.0644C59.426 35.2196 59.4119 35.389 59.4119 35.5443C59.2713 35.4596 59.0885 35.4173 59.0041 35.3043C58.526 34.6973 58.0198 34.1045 57.5979 33.4692C57.3167 33.074 57.1479 32.6223 56.9651 32.1706C56.6698 31.4506 56.7823 30.7589 57.1479 30.0955C57.4292 29.6296 57.7385 29.1638 57.9916 28.6839C58.1604 28.3592 58.301 27.9922 58.4557 27.6393C58.5541 27.3852 58.6947 27.3287 58.8494 27.5546C59.1588 28.0063 59.44 28.4862 59.7072 28.9521C59.7494 29.0085 59.7494 29.0932 59.7634 29.192Z" fill="white"/>
<path d="M53.7027 20.5531C53.6746 20.6237 53.6324 20.7084 53.5621 20.779C53.4074 20.9343 53.2527 21.0895 53.098 21.2307C52.9574 21.3719 52.8449 21.3154 52.7465 21.1601C52.3809 20.4402 51.9731 19.7203 51.6637 18.9862C51.3825 18.3228 51.284 17.6029 51.5372 16.897C51.5653 16.8123 51.6637 16.7559 51.72 16.6853C51.7903 16.7559 51.8887 16.8265 51.9028 16.897C51.9871 17.4899 52.4231 17.8287 52.8309 18.1816C53.0558 18.3651 53.1543 18.5769 53.2105 18.8733C53.2949 19.3533 53.4636 19.8473 53.5902 20.3273C53.6465 20.3978 53.6886 20.4684 53.7027 20.5531Z" fill="white"/>
<path d="M73.2208 10.6577C73.1364 10.686 73.0661 10.7424 72.9817 10.7848C72.3208 11.0953 71.674 11.4059 71.013 11.7305C70.8302 11.8294 70.6474 11.9705 70.4506 12.0411C70.3662 12.0693 70.1974 12.0552 70.1271 12.0129C69.7475 11.6458 69.3818 11.2506 69.0303 10.8553C68.974 10.7989 68.974 10.7142 68.9459 10.6436C69.0162 10.6154 69.1006 10.5589 69.1709 10.5589C70.3802 10.5448 71.5896 10.5307 72.7849 10.5024C72.9255 10.5024 73.0661 10.5166 73.1927 10.5307C73.2067 10.5871 73.2208 10.6295 73.2208 10.6577Z" fill="white"/>
<path d="M72.6583 13.0008C72.4896 13.029 72.3771 13.0572 72.2786 13.0714C71.9833 13.1419 71.9552 13.2266 72.0958 13.4807C72.3068 13.8336 72.4614 14.2007 72.4614 14.6241C72.4614 14.7088 72.4474 14.7935 72.4052 14.977C72.2646 14.8218 72.1802 14.7371 72.1099 14.6524C71.7583 14.1018 71.4209 13.5513 71.0552 13.0149C70.9146 12.789 70.9287 12.7185 71.1959 12.7043C71.688 12.6479 72.1521 12.6902 72.6583 13.0008Z" fill="white"/>
</svg>
