<svg width="89" height="105" viewBox="0 0 89 105" fill="none" xmlns="http://www.w3.org/2000/svg">
<path d="M54.7397 93.7673C54.5312 93.0583 54.2809 92.3492 54.1975 91.6402C53.9473 88.5539 54.406 85.551 55.2819 82.5899C55.3653 82.2145 55.6572 81.8808 55.9492 81.6723C59.3274 78.9197 62.7474 76.2087 66.1673 73.4561C68.7531 71.3707 71.6309 69.619 73.7162 66.9498C75.3845 64.8645 76.8025 62.5706 77.3447 59.9014C77.5949 58.6919 77.6366 57.399 77.1779 56.106C76.8859 57.1487 76.6357 58.1914 76.2603 59.2341C75.3845 61.6948 73.7996 63.6967 72.1314 65.6152C70.046 68.0342 67.3768 69.7859 64.791 71.5793C60.662 74.457 56.5331 77.3348 52.2373 80.004C47.441 82.9652 43.4372 86.8022 39.8504 91.0563C36.5139 94.9351 33.6361 99.1474 31.5091 103.819C31.4257 104.027 31.092 104.361 31.0086 104.361C30.7167 104.277 30.383 104.069 30.2996 103.819C29.3821 101.817 28.3394 99.8147 27.547 97.7711C26.0455 93.9341 25.4199 89.8885 25.4616 85.8013C25.5451 81.714 26.3792 77.7102 28.5479 74.2068C29.7157 72.2049 31.3423 70.3698 33.1357 68.91C36.3054 66.1574 39.7253 63.6967 43.0618 61.1109C43.7709 60.5687 44.4799 59.9431 45.2723 59.4426C45.5225 59.2341 45.8979 59.0672 46.2315 59.0255C45.5642 61.9867 43.9794 64.5308 42.8116 67.2835C42.895 67.3252 42.9784 67.4503 43.0618 67.492C43.6874 66.9915 44.3547 66.5327 44.8969 65.9489C48.0666 62.8625 50.152 59.1924 51.6534 55.1051C52.9463 51.5183 53.697 47.8481 53.0714 44.0111C52.4041 40.0072 51.0695 36.2953 49.0259 32.8337C47.9415 30.9986 46.6069 29.2469 45.3974 27.4535C45.314 27.2867 45.1055 27.1616 44.7718 27.1616C44.9803 27.662 45.1472 28.2042 45.314 28.7047C46.8988 33.0005 47.7747 37.3797 47.2742 42.0092C47.0657 43.9694 46.1898 45.6376 44.8552 47.1391C43.4789 48.6822 41.8941 48.9325 39.8504 47.8064C38.4324 46.9723 37.1395 45.9713 35.8049 44.9286C33.511 43.2604 31.3006 41.3419 28.6313 40.2992C28.4645 40.2575 28.256 40.2158 27.964 40.2575C28.2143 40.5494 28.4228 40.9248 28.6731 41.175C30.7584 43.2604 32.4684 45.7211 33.6361 48.432C35.221 52.0605 35.7215 55.8558 34.5537 59.7345C34.2617 60.8189 33.6361 61.7782 33.1357 62.7374C32.7603 63.4464 32.1764 63.7801 31.3006 63.6133C29.0901 63.1962 26.9631 63.2379 24.7526 63.6133C22.4171 63.9886 20.29 64.7811 18.2464 66.0323C15.744 67.5754 14.1592 69.8276 12.9914 72.4134C12.4909 73.5395 12.2407 73.6229 11.3648 72.7053C9.15436 70.4115 7.44439 67.9091 6.56855 64.8228C6.52684 64.6559 6.40173 64.4474 6.36002 64.3223C6.27661 64.3223 6.15148 64.3223 6.06807 64.364C6.10977 65.3232 6.15148 66.3242 6.23489 67.2835C6.23489 67.5337 6.40172 67.784 6.40172 68.0342C6.40172 68.201 6.36001 68.4513 6.23489 68.5347C6.19318 68.5764 5.94294 68.5347 5.77612 68.4513C3.94102 67.0332 2.23106 65.4901 2.14765 62.9877C2.10594 62.0701 2.35618 61.1526 2.60642 60.2767C3.56568 57.107 5.19222 54.3544 7.44438 51.9354C7.94486 51.3932 8.48706 51.3932 9.07095 51.7685C11.2814 53.3117 13.5336 54.7297 15.7023 56.3146C17.1203 57.2738 18.4966 58.3999 19.873 59.4426C20.0815 59.6094 20.29 59.7345 20.4986 59.9014C21.1242 60.2767 21.3744 60.1099 21.3327 59.4426C21.2493 57.4824 20.29 55.9809 18.5383 55.1468C16.7867 54.3961 14.9933 53.7288 13.2833 52.9363C11.0311 51.9771 9.02924 50.5173 8.02828 48.2235C7.5278 47.0974 7.19415 45.8045 7.11073 44.595C7.02732 43.3855 8.1534 42.7599 9.07095 42.3011C10.2804 41.6338 11.5733 41.1333 12.9497 40.5077C12.7411 40.2575 12.5326 40.0489 12.3241 39.7987C11.7819 39.1731 11.7819 38.6726 12.5743 38.3807C13.4501 38.0053 14.4094 37.8802 15.3269 37.63C15.6189 37.5882 15.8691 37.5465 16.2028 37.4631C16.2445 37.3797 16.2445 37.2546 16.2862 37.1712C15.6606 36.9209 15.1184 36.5039 14.4928 36.4205C12.3658 35.9617 10.1553 35.9617 8.11169 36.629C6.44342 37.1712 5.10882 36.629 3.64909 36.1702C3.56568 36.1285 3.39884 35.5446 3.48225 35.4195C3.7742 35.0441 4.14956 34.7522 4.56663 34.5019C7.77804 32.2498 10.9895 30.0393 14.2843 27.7872C14.4928 27.7037 14.7013 27.5786 14.8265 27.4952C14.743 27.3284 14.6596 27.245 14.5762 27.0781C13.9506 27.245 13.2833 27.4535 12.6994 27.5786C12.4492 27.6203 12.1989 27.6203 11.9487 27.6203C11.9487 27.3284 11.907 26.9947 12.0321 26.7445C12.8662 25.1596 14.0757 23.825 15.6189 23.0326C17.6625 21.9065 17.8293 20.2799 17.454 18.3197C17.2871 17.4439 17.0786 16.6514 16.9535 15.7756C16.9118 15.4837 16.9535 15.15 16.9535 14.8163C16.9952 14.7746 17.1203 14.7329 17.162 14.6495C17.871 15.4837 18.6635 16.2761 19.581 17.3605C19.6644 16.7349 19.7895 16.3178 19.7895 15.9424C19.9981 14.1073 20.0815 12.2722 20.3317 10.4371C20.4151 9.5613 20.8739 8.89399 21.708 8.43521C25.5451 6.30817 29.3821 4.09771 33.2608 2.05408C35.1376 1.01141 37.0978 0.0521501 39.3499 0.385804C40.768 0.594338 42.2277 1.09482 43.6457 1.51189C43.896 1.55359 44.1045 1.88725 44.4799 2.1792C42.6031 2.8465 40.6429 3.09675 39.2665 4.43136C39.2665 4.51478 39.3082 4.59819 39.3082 4.6816C39.6002 4.63989 39.9755 4.6399 40.2675 4.51478C43.4789 3.4304 46.7737 2.67968 50.1103 2.42944C50.9444 2.38773 51.9036 2.42944 52.6544 2.72138C56.6999 4.30624 60.7454 5.97451 64.7493 7.55937C67.0432 8.47692 69.337 9.39447 71.7143 10.1452C73.6745 10.7708 74.8006 12.1054 75.6347 13.6903C77.5115 17.1519 79.5134 20.5719 81.2234 24.1587C82.4329 26.7028 83.2253 29.5388 84.1011 32.2498C84.3514 33.1256 84.3097 34.0849 84.3931 35.0024C84.2263 35.0441 84.1429 35.0858 83.976 35.1693C83.6841 34.7105 83.3087 34.2934 83.0168 33.8346C81.5153 31.5408 80.0973 29.2052 78.5542 26.8696C78.2622 26.4108 77.8452 26.0355 77.4698 25.6601C77.3864 25.7018 77.303 25.7435 77.2196 25.8269C77.303 26.2023 77.4281 26.5777 77.6366 26.953C79.7219 31.5408 81.9324 36.0868 83.976 40.7163C85.3106 43.8026 86.5201 46.8471 87.6462 50.0169C88.2718 51.7686 88.1884 53.6454 88.0633 55.5222C87.6045 60.527 85.6026 64.8645 82.5997 68.7432C79.1798 73.1224 75.1759 76.9594 70.5465 80.1292C67.2934 82.3813 64.0403 84.7169 60.8706 87.1776C58.8686 88.7207 57.2421 90.5975 55.9492 92.808C55.6989 93.2251 55.4487 93.5587 55.1985 93.9758C54.9899 93.7673 54.9065 93.7673 54.7397 93.7673ZM43.8543 16.9851C43.8126 17.0685 43.8126 17.1936 43.7708 17.2771C44.1879 17.569 44.605 17.8192 44.9386 18.1529C47.3993 20.3633 49.9434 22.4904 52.279 24.7843C54.0307 26.536 55.6989 28.3293 57.117 30.2896C59.9113 34.21 61.663 38.6309 62.4971 43.4272C63.5815 49.9752 62.3303 55.9392 58.5767 61.4028C58.4099 61.6114 58.2013 61.7782 58.0345 61.945C57.9511 61.945 57.8677 61.9033 57.7843 61.9033C57.7426 61.5279 57.7009 61.1943 57.7426 60.7772C57.9094 57.5658 57.7426 54.3544 56.7833 51.2264C56.6999 50.9761 56.5331 50.7259 56.3663 50.4756C56.2828 50.4756 56.1577 50.5173 56.0743 50.5173C55.8658 58.7336 53.5719 66.3659 49.7766 73.6646C50.5273 73.2892 51.1946 72.9139 51.8202 72.4551C55.6572 69.3271 58.7852 65.6152 61.3293 61.4028C63.3313 58.0663 64.7493 54.5629 65.2498 50.6842C65.6668 47.6813 65.7502 44.6367 65.4583 41.6338C65.4166 41.2167 65.5 40.7997 65.5417 40.4243C65.6251 40.4243 65.7502 40.4243 65.8336 40.4243C67.5853 43.594 68.0858 47.0557 68.7114 50.6008C68.8782 50.5173 68.9616 50.3922 68.9616 50.3088C69.0033 50.1003 69.0034 49.85 69.0451 49.6415C69.337 45.304 68.8365 41.0499 66.9597 37.1295C66.3341 35.8366 66.0839 34.8356 67.3351 33.8763C67.4185 33.8346 67.4185 33.6678 67.5019 33.5844C69.5872 29.9976 70.3797 26.0772 69.7541 21.9899C69.2953 19.0287 68.3778 18.1529 65.4166 18.3197C62.3303 18.4865 59.244 18.5283 56.1577 18.5283C52.4875 18.5283 48.8591 17.8609 45.2306 17.1936C44.7301 17.0268 44.2713 17.0268 43.8543 16.9851ZM22.9592 27.0364C22.9175 27.0781 22.8758 27.2033 22.7924 27.245C22.9592 27.7454 23.0844 28.2876 23.2512 28.7881C23.418 29.2886 23.418 29.7057 22.8758 30.1227C21.8332 30.8317 20.8322 31.6242 19.7895 32.3332C19.6227 32.5 19.4976 32.7086 19.2474 33.0422C19.7061 33.0005 19.9147 33.0005 20.1232 32.9588C21.3327 32.6668 22.5839 32.2498 23.8351 31.9161C26.546 31.3739 29.257 30.79 32.0096 30.3313C33.3442 30.1227 34.7205 30.1227 36.0968 30.0393C36.5556 29.9976 37.1395 29.8308 36.7224 29.2886C35.5129 27.6203 34.22 25.8269 32.0096 25.4933C29.8826 25.2013 27.6721 25.0762 25.5034 24.9928C24.2939 24.9511 24.2104 25.0762 24.127 26.3274C24.0853 26.9947 24.0019 27.5369 22.9592 27.0364ZM29.674 17.3188C30.1328 17.3188 30.5081 17.3605 30.8001 17.3188C32.8854 17.1102 35.0542 16.9017 37.1395 16.6097C37.9736 16.5263 38.8078 16.1927 39.6002 15.859C40.9348 15.1917 42.186 14.441 43.4789 13.6486C43.7709 13.44 44.1045 13.2315 44.3547 13.023C44.313 12.9812 44.313 12.8561 44.2713 12.8144C43.9794 12.8561 43.7291 12.8978 43.3955 13.023C42.5614 13.3149 41.8106 13.732 40.9348 13.8988C37.8485 14.6078 34.7622 15.2334 31.6759 15.9007C30.8418 16.1093 30.0077 16.1927 29.674 17.3188ZM31.9262 10.1869C31.8428 10.1035 31.7593 10.0201 31.6759 9.93666C28.2977 12.3974 25.3782 15.3168 22.8341 18.7368C23.7517 18.6951 24.6275 18.5282 25.4199 18.278C25.7119 18.1946 25.9621 17.9026 26.129 17.6524C27.3384 16.0258 28.4645 14.3159 29.7157 12.6893C30.4247 11.8135 31.1755 10.9793 31.9262 10.1869Z" fill="white"/>
<path d="M25.2531 75.2492C25.1697 75.4994 25.0863 75.7914 25.0028 76.0833C23.2512 80.5459 23.0009 85.092 23.6682 89.7214C23.8351 90.6807 24.0853 91.6816 24.2104 92.5992C24.2521 93.058 24.2104 93.5585 24.2104 94.0172C23.7934 93.767 23.2512 93.6419 23.0009 93.3082C21.5829 91.5148 20.0815 89.7631 18.8303 87.8863C17.9962 86.7185 17.4957 85.3839 16.9535 84.0493C16.0777 81.9223 16.4113 79.8786 17.4957 77.9184C18.3298 76.5421 19.2473 75.1658 19.9981 73.7477C20.4985 72.7885 20.9156 71.7041 21.3744 70.6614C21.6663 69.9107 22.0834 69.7439 22.5422 70.4112C23.4597 71.7458 24.2938 73.1639 25.0863 74.5402C25.2114 74.707 25.2114 74.9572 25.2531 75.2492Z" fill="white"/>
<path d="M7.27751 49.7245C7.1941 49.9331 7.06898 50.1833 6.86045 50.3918C6.40168 50.8506 5.94291 51.3094 5.48414 51.7264C5.06708 52.1435 4.73343 51.9767 4.44148 51.5179C3.35711 49.3909 2.14762 47.2638 1.23008 45.0951C0.395952 43.1349 0.10401 41.0078 0.854725 38.9225C0.938138 38.6722 1.23008 38.5054 1.3969 38.2969C1.60544 38.5054 1.89739 38.7139 1.93909 38.9225C2.18933 40.6742 3.48223 41.6751 4.69172 42.7178C5.35902 43.26 5.65096 43.8856 5.81779 44.7614C6.06803 46.1794 6.56851 47.6392 6.94387 49.0572C7.11069 49.2657 7.23581 49.4743 7.27751 49.7245Z" fill="white"/>
<path d="M65.1663 20.489C64.9161 20.5725 64.7075 20.7393 64.4573 20.8644C62.4971 21.782 60.5786 22.6995 58.6184 23.6588C58.0762 23.9507 57.534 24.3678 56.9501 24.5763C56.6999 24.6597 56.1994 24.618 55.9908 24.4929C54.8648 23.4085 53.7804 22.2407 52.7377 21.0729C52.5709 20.9061 52.5709 20.6559 52.4875 20.4473C52.696 20.3639 52.9463 20.1971 53.1548 20.1971C56.7416 20.1554 60.3283 20.1137 63.8734 20.0303C64.2904 20.0303 64.7075 20.072 65.0829 20.1137C65.1246 20.2805 65.1663 20.4056 65.1663 20.489Z" fill="white"/>
<path d="M63.4981 27.4113C62.9976 27.4947 62.664 27.5781 62.372 27.6198C61.4962 27.8283 61.4128 28.0786 61.8299 28.8293C62.4555 29.872 62.9142 30.9563 62.9142 32.2075C62.9142 32.4578 62.8725 32.708 62.7474 33.2502C62.3304 32.7914 62.0801 32.5412 61.8716 32.2909C60.8289 30.6644 59.828 29.0378 58.7436 27.453C58.3265 26.7857 58.3682 26.5771 59.1607 26.5354C60.6204 26.3686 61.9967 26.4937 63.4981 27.4113Z" fill="white"/>
</svg>
