<svg width="32" height="32" viewBox="0 0 32 32" fill="none" xmlns="http://www.w3.org/2000/svg">
<path fill-rule="evenodd" clip-rule="evenodd" d="M16.0043 0.100098C7.22057 0.100098 0.0999756 7.2207 0.0999756 16.0044C0.0999756 24.788 7.22057 31.9087 16.0043 31.9087C24.7879 31.9087 31.9085 24.788 31.9085 16.0044C31.9085 7.22069 24.7879 0.100098 16.0043 0.100098ZM3.09998 16.0044C3.09998 8.87755 8.87743 3.1001 16.0043 3.1001C23.131 3.1001 28.9085 8.87755 28.9085 16.0044C28.9085 23.1311 23.131 28.9087 16.0043 28.9087C8.87743 28.9087 3.09998 23.1311 3.09998 16.0044ZM22.503 11.5961C22.9797 10.9186 22.817 9.98293 22.1395 9.50617C21.462 9.02942 20.5263 9.19215 20.0496 9.86964L13.666 18.941L11.2174 16.447C10.6371 15.8559 9.68734 15.8472 9.09621 16.4276C8.50508 17.008 8.49637 17.9577 9.07676 18.5488L12.7865 22.3272C13.0984 22.6449 13.5353 22.8076 13.979 22.7713C14.4227 22.7351 14.8273 22.5036 15.0835 22.1396L22.503 11.5961Z" fill="#5BC03E"/>
</svg>
