<svg width="52" height="52" viewBox="0 0 52 52" fill="none" xmlns="http://www.w3.org/2000/svg">
<path d="M25.9997 0.800049C12.0837 0.800049 0.799683 12.084 0.799683 26C0.799683 39.916 12.0837 51.2 25.9997 51.2C39.9157 51.2 51.1997 39.916 51.1997 26C51.1997 12.084 39.9157 0.800049 25.9997 0.800049ZM34.9877 36.22C34.6517 38.348 32.9437 39.104 31.1797 37.872L23.0597 32.244C22.0517 31.544 21.9397 30.284 22.8357 29.416C24.2357 28.1 26.3917 26.028 28.8277 23.704C33.0277 19.7 32.1037 19.392 26.7277 23.004L18.8597 28.324C17.8237 29.024 16.0597 29.276 14.8837 28.884L10.3477 27.4C8.86368 26.924 8.83568 26.056 10.2637 25.468L35.8277 14.912C37.2557 14.324 38.2357 15.08 37.9837 16.62L34.9877 36.22Z" fill="#0088CC"/>
</svg>
