<svg width="470" height="228" viewBox="0 0 470 228" fill="none" xmlns="http://www.w3.org/2000/svg">
<path fill-rule="evenodd" clip-rule="evenodd" d="M24.9114 0C12.2814 16.4523 4.77393 37.0429 4.77393 59.387C4.77393 113.297 48.4768 157 102.387 157C156.297 157 200 113.297 200 59.387C200 37.0429 192.493 16.4523 179.863 0H24.9114Z" fill="#FAD0A9" fill-opacity="0.26"/>
<circle cx="28.5" cy="179.5" r="28.5" fill="#FFB877"/>
<circle cx="419" cy="100" r="51" fill="#FF7A00" fill-opacity="0.32"/>
<path fill-rule="evenodd" clip-rule="evenodd" d="M339.871 228C359.919 206.76 372.209 178.117 372.209 146.605C372.209 81.1011 319.108 28 253.605 28C188.101 28 135 81.1011 135 146.605C135 178.117 147.29 206.76 167.338 228H339.871Z" fill="#FF7A00"/>
<g clip-path="url(#clip0)">
<path d="M138.69 166.938L115.988 189.572C115.309 189.98 114.425 191 112.59 190.456C111.638 190.116 110.483 189.028 110.279 187.805V187.737L103.754 148.723L109.055 144.713C109.742 145.115 122.843 152.798 122.037 152.325L138.69 162.113C139.981 163.472 139.981 165.579 138.69 166.938Z" fill="#FF7A00" fill-opacity="0.68"/>
<path d="M191.934 85.4686L171.315 187.873C171.111 188.961 170.295 189.912 169.208 190.32C168.8 190.524 168.392 190.592 167.984 190.592C167.305 190.592 166.625 190.388 166.013 189.98C165.33 189.492 115.249 153.72 118.435 155.996C88.112 140.975 103.929 148.87 77.9031 135.877C76.6797 135.265 76 134.042 76 132.75C76.068 131.391 76.8156 130.236 78.0391 129.692L187.244 81.6623C188.399 81.1866 189.759 81.3225 190.71 82.1381C190.846 82.2741 191.05 82.478 191.186 82.6139C191.866 83.4295 192.138 84.4491 191.934 85.4686Z" fill="white"/>
<path d="M191.186 82.6143L122.037 152.326L118.435 155.996L112.59 190.456C111.639 190.116 110.483 189.028 110.279 187.805V187.737L103.754 148.723L109.056 144.713L191.186 82.6143Z" fill="#E5E5E5"/>
</g>
<defs>
<clipPath id="clip0">
<rect width="116" height="116" fill="white" transform="translate(76 78)"/>
</clipPath>
</defs>
</svg>
