<svg width="52" height="52" viewBox="0 0 52 52" fill="none" xmlns="http://www.w3.org/2000/svg">
<path fill-rule="evenodd" clip-rule="evenodd" d="M0.800049 26C0.800049 12.0841 12.0841 0.800049 26 0.800049C39.916 0.800049 51.2001 12.0841 51.2001 26C51.2001 39.916 39.916 51.2001 26 51.2001C12.0841 51.2001 0.800049 39.916 0.800049 26ZM25.8881 37.8441C33.2241 37.8721 38.7961 36.3881 39.6921 29.6121C40.6441 22.556 39.3001 18.104 36.8641 16.116C36.1361 15.5 32.6361 13.4 26 13.4C19.364 13.4 15.864 15.5 15.136 16.116C12.672 18.104 11.384 22.556 12.3081 29.584C13.064 35.2961 18.7761 37.1161 18.7761 37.1161V39.944C18.7761 39.9542 18.776 39.9649 18.776 39.976C18.7751 40.3031 18.7729 41.0453 19.504 41.3161C20.484 41.6801 22.1641 40.6441 23.3401 39.6361C24.6561 38.5161 25.3001 37.8441 25.3001 37.8441H25.8881ZM30.1431 27.9039L32.6071 29.6679C33.0831 30.0319 33.0831 30.4519 32.8311 30.9559C32.5791 31.4039 32.2151 31.8519 31.7391 32.2439L31.7275 32.2544C31.4393 32.5139 30.7167 33.1649 29.6671 32.9439C23.6191 31.7679 20.5391 28.4079 19.0551 22.0519C18.8871 21.2679 19.1111 20.8479 19.6711 20.2319C20.0911 19.7839 20.5111 19.4199 20.9871 19.1399C21.5191 18.8879 21.9671 18.9719 22.3031 19.3639L24.0671 21.7999C24.4031 22.3879 24.1791 23.0039 23.8991 23.2559L23.3671 23.6759C23.3398 23.6986 23.3104 23.7213 23.2801 23.7446C23.1239 23.865 22.9471 24.0013 22.9471 24.2359C23.3671 26.7279 25.1871 28.3519 27.4551 29.0519C27.7911 29.1639 27.9591 29.0519 28.1831 28.7719C28.2951 28.6039 28.6871 28.1279 28.6871 28.1279C28.9391 27.7919 29.5831 27.5679 30.1431 27.9039Z" fill="#7360F2"/>
</svg>
