<svg width="52" height="52" viewBox="0 0 52 52" fill="none" xmlns="http://www.w3.org/2000/svg">
<path fill-rule="evenodd" clip-rule="evenodd" d="M0.799683 26C0.799683 12.084 12.0837 0.800049 25.9997 0.800049C39.9157 0.800049 51.1997 12.084 51.1997 26C51.1997 39.916 39.9157 51.2 25.9997 51.2C12.0837 51.2 0.799683 39.916 0.799683 26ZM18.6077 37.844C20.7637 39.188 23.2837 40 25.9997 40C33.7277 40 39.9997 33.728 39.9997 26C39.9997 18.272 33.7277 12 25.9997 12C18.2717 12 11.9997 18.272 11.9997 26C11.9997 28.912 12.8957 31.6 14.4077 33.84L11.9997 40L18.6077 37.844ZM30.1433 27.9039L32.6073 29.6679C33.0833 30.0319 33.0833 30.4519 32.8313 30.9559C32.5793 31.4039 32.2153 31.8519 31.7393 32.2439L31.7277 32.2543C31.4395 32.5139 30.7169 33.1649 29.6673 32.9439C23.6193 31.7679 20.5393 28.4079 19.0553 22.0519C18.8873 21.2679 19.1113 20.8479 19.6713 20.2319C20.0913 19.7839 20.5113 19.4199 20.9873 19.1399C21.5193 18.8879 21.9673 18.9719 22.3033 19.3639L24.0673 21.7999C24.4033 22.3879 24.1793 23.0039 23.8993 23.2559L23.3673 23.6759C23.34 23.6986 23.3106 23.7213 23.2803 23.7446C23.1242 23.865 22.9473 24.0013 22.9473 24.2359C23.3673 26.7279 25.1873 28.3519 27.4553 29.0519C27.7913 29.1639 27.9593 29.0519 28.1833 28.7719C28.2953 28.6039 28.6873 28.1279 28.6873 28.1279C28.9393 27.7919 29.5833 27.5679 30.1433 27.9039Z" fill="#25D366"/>
</svg>
